<svg class="stroke-current" viewBox="0 0 23 23" fill="none" xmlns="http://www.w3.org/2000/svg">
<path d="M4.08147 15.9023C3.00987 14.0958 2.63459 11.9603 3.02609 9.89673C3.41759 7.83316 4.54895 5.98348 6.20772 4.69503C7.86648 3.40658 9.93855 2.76799 12.0348 2.89917C14.1311 3.03035 16.1074 3.92227 17.5926 5.40747C19.0778 6.89266 19.9697 8.86895 20.1009 10.9652C20.2321 13.0615 19.5935 15.1336 18.3051 16.7924C17.0167 18.4511 15.167 19.5825 13.1034 19.974C11.0398 20.3655 8.90432 19.9902 7.09786 18.9187L7.09788 18.9186L4.11897 19.7697C3.99572 19.8049 3.8653 19.8065 3.74122 19.7744C3.61714 19.7422 3.50391 19.6775 3.41328 19.5868C3.32264 19.4962 3.25789 19.383 3.22574 19.2589C3.19359 19.1348 3.1952 19.0044 3.23042 18.8811L4.08153 15.9022L4.08147 15.9023Z" stroke-width="1.5" stroke-linecap="round" stroke-linejoin="round"/>
</svg>
