<svg class="stroke-current" viewBox="0 0 23 23" fill="none" xmlns="http://www.w3.org/2000/svg">
  <path d="M2.87447 9.34375H7.18697V18.6875H2.87447C2.68385 18.6875 2.50103 18.6118 2.36624 18.477C2.23145 18.3422 2.15572 18.1594 2.15572 17.9688V10.0625C2.15572 9.87188 2.23145 9.68906 2.36624 9.55427C2.50103 9.41948 2.68385 9.34375 2.87447 9.34375V9.34375Z" stroke-width="1.5" stroke-linecap="round" stroke-linejoin="round"/>
  <path d="M7.18697 9.34375L10.7807 2.15625C11.1583 2.15625 11.5321 2.23061 11.8809 2.3751C12.2298 2.51958 12.5467 2.73135 12.8137 2.99832C13.0806 3.26529 13.2924 3.58222 13.4369 3.93104C13.5814 4.27985 13.6557 4.6537 13.6557 5.03125V7.1875H19.2149C19.4187 7.1875 19.6202 7.23085 19.806 7.31466C19.9918 7.39848 20.1576 7.52085 20.2925 7.67366C20.4274 7.82646 20.5283 8.00621 20.5884 8.20097C20.6485 8.39573 20.6665 8.60105 20.6412 8.8033L19.5631 17.4283C19.5197 17.776 19.3507 18.0958 19.0881 18.3277C18.8254 18.5595 18.4871 18.6875 18.1367 18.6875H7.18697" stroke-width="1.5" stroke-linecap="round" stroke-linejoin="round"/>
</svg>
