<svg width="350" height="44" viewBox="0 0 350 44" fill="none"
    xmlns="http://www.w3.org/2000/svg">
    <g opacity="0.8">
        <path d="M119.526 0.000141085H10.3477C9.94971 0.000141085 9.55652 0.000141085 9.15961 0.00231162C8.82735 0.00448216 8.49775 0.0107876 8.1623 0.0160945C7.43356 0.0246701 6.70653 0.0887817 5.98753 0.207872C5.26954 0.329555 4.57405 0.558963 3.92457 0.888335C3.27588 1.22049 2.68316 1.6521 2.1679 2.1675C1.64994 2.68144 1.21817 3.2755 0.889214 3.92681C0.559347 4.57683 0.330617 5.27339 0.210922 5.99243C0.0900891 6.71055 0.0250679 7.43696 0.0164418 8.16513C0.00637052 8.49788 0.00530696 8.83172 0 9.16451V34.2497C0.00530696 34.5866 0.00637052 34.9131 0.0164418 35.2502C0.0250706 35.9783 0.0900918 36.7047 0.210922 37.4228C0.330286 38.1422 0.55903 38.8392 0.889214 39.4895C1.21802 40.1387 1.64985 40.7303 2.1679 41.2414C2.6812 41.7591 3.27431 42.191 3.92457 42.5206C4.57404 42.8509 5.26946 43.0816 5.98753 43.2052C6.70665 43.3233 7.4336 43.3875 8.1623 43.3971C8.49775 43.4044 8.82735 43.4087 9.15961 43.4087C9.55651 43.4109 9.94974 43.4109 10.3477 43.4109H119.526C119.916 43.4109 120.312 43.4109 120.702 43.4087C121.033 43.4087 121.372 43.4044 121.703 43.3971C122.43 43.388 123.156 43.3238 123.873 43.2052C124.594 43.0808 125.291 42.8501 125.944 42.5206C126.594 42.1908 127.186 41.7589 127.699 41.2414C128.216 40.7283 128.649 40.1371 128.982 39.4895C129.309 38.8387 129.536 38.1418 129.653 37.4228C129.774 36.7046 129.842 35.9784 129.855 35.2502C129.859 34.9131 129.859 34.5866 129.859 34.2497C129.868 33.8554 129.868 33.4633 129.868 33.0626V10.3494C129.868 9.95196 129.868 9.5577 129.859 9.16451C129.859 8.83172 129.859 8.49787 129.855 8.16509C129.842 7.43685 129.774 6.71061 129.653 5.99238C129.536 5.27376 129.309 4.57726 128.982 3.92677C128.312 2.62128 127.249 1.55861 125.944 0.888237C125.291 0.55967 124.594 0.330323 123.873 0.207775C123.156 0.0881593 122.43 0.0240254 121.703 0.0159426C121.372 0.0106465 121.033 0.00428681 120.702 0.00217054C120.312 0 119.916 0 119.526 0V0.000141085Z" fill="#A6A6A6"/>
        <path d="M9.16496 42.4612C8.8343 42.4612 8.51163 42.457 8.18357 42.4496C7.50395 42.4407 6.82593 42.3816 6.15505 42.2726C5.52949 42.1648 4.92349 41.9644 4.35704 41.678C3.79579 41.3939 3.28388 41.0213 2.84092 40.5747C2.39156 40.1333 2.01744 39.6213 1.7334 39.0591C1.44622 38.4932 1.24748 37.8867 1.1441 37.2606C1.03245 36.5879 0.972042 35.9076 0.963398 35.2257C0.956518 34.9968 0.94751 34.2348 0.94751 34.2348V9.16447C0.94751 9.16447 0.957104 8.4141 0.963452 8.19365C0.971728 7.51284 1.03178 6.83365 1.1431 6.16196C1.24667 5.53415 1.44557 4.92586 1.7329 4.35813C2.0159 3.7963 2.38794 3.28397 2.8346 2.84098C3.28075 2.39379 3.7943 2.01935 4.35651 1.73133C4.92166 1.44578 5.52651 1.24678 6.1508 1.14101C6.82388 1.03092 7.50427 0.971408 8.18624 0.962958L9.16549 0.949707H120.697L121.688 0.96349C122.364 0.97152 123.038 1.03051 123.705 1.13994C124.335 1.24704 124.947 1.44743 125.518 1.73451C126.644 2.31496 127.561 3.23329 128.139 4.36078C128.422 4.92458 128.618 5.52792 128.72 6.1503C128.832 6.82751 128.896 7.51204 128.908 8.19843C128.912 8.50578 128.912 8.83591 128.912 9.16447C128.92 9.57144 128.92 9.95881 128.92 10.3494V33.0626C128.92 33.4568 128.92 33.8416 128.912 34.2294C128.912 34.5824 128.912 34.9057 128.907 35.2384C128.895 35.9126 128.833 36.5849 128.722 37.25C128.621 37.8806 128.423 38.4918 128.136 39.0624C127.85 39.6185 127.478 40.126 127.034 40.5662C126.59 41.0153 126.078 41.39 125.515 41.6759C124.945 41.9646 124.335 42.1657 123.705 42.2726C123.034 42.3821 122.356 42.4413 121.676 42.4496C121.358 42.457 121.025 42.4612 120.702 42.4612L119.526 42.4634L9.16496 42.4612Z" fill="black"/>
        <path d="M26.8809 22.0318C26.8926 21.1259 27.1332 20.2378 27.5804 19.4499C28.0275 18.6621 28.6667 18.0001 29.4384 17.5257C28.9482 16.8255 28.3014 16.2493 27.5495 15.8428C26.7976 15.4363 25.9613 15.2107 25.107 15.184C23.2845 14.9927 21.5178 16.2745 20.5891 16.2745C19.6425 16.2745 18.2126 15.203 16.6729 15.2347C15.677 15.2669 14.7064 15.5565 13.8557 16.0753C13.005 16.5941 12.3031 17.3245 11.8186 18.1952C9.71969 21.8291 11.2853 27.1697 13.2959 30.1071C14.3018 31.5455 15.4775 33.1522 17.0158 33.0952C18.5211 33.0328 19.0833 32.1353 20.9004 32.1353C22.7006 32.1353 23.228 33.0952 24.7976 33.059C26.4129 33.0328 27.4306 31.6142 28.4012 30.1623C29.124 29.1374 29.6801 28.0046 30.0491 26.806C29.1107 26.4091 28.3098 25.7448 27.7464 24.8958C27.1831 24.0468 26.882 23.0507 26.8809 22.0318Z" fill="white"/>
        <path d="M23.9164 13.2521C24.7971 12.1948 25.231 10.8359 25.1259 9.46387C23.7804 9.60519 22.5375 10.2483 21.6449 11.265C21.2084 11.7617 20.8742 12.3395 20.6612 12.9655C20.4482 13.5914 20.3607 14.2532 20.4036 14.913C21.0766 14.9199 21.7425 14.7741 22.3509 14.4864C22.9594 14.1987 23.4947 13.7767 23.9164 13.2521Z" fill="white"/>
        <path d="M45.9095 29.4536H40.7725L39.5389 33.0962H37.363L42.2287 19.6194H44.4893L49.355 33.0962H47.1421L45.9095 29.4536ZM41.3045 27.7727H45.3765L43.3691 21.861H43.313L41.3045 27.7727Z" fill="white"/>
        <path d="M59.8633 28.184C59.8633 31.2374 58.229 33.1991 55.7628 33.1991C55.1381 33.2318 54.5168 33.0879 53.97 32.7839C53.4233 32.4799 52.9732 32.028 52.6713 31.4801H52.6246V36.3468H50.6078V23.2706H52.56V24.9049H52.5971C52.9129 24.3596 53.3705 23.9101 53.9215 23.6042C54.4724 23.2983 55.0959 23.1475 55.7257 23.1678C58.2195 23.1678 59.8633 25.1391 59.8633 28.184ZM57.7903 28.184C57.7903 26.1947 56.7622 24.8869 55.1937 24.8869C53.6527 24.8869 52.6162 26.2223 52.6162 28.184C52.6162 30.1638 53.6527 31.4896 55.1937 31.4896C56.7622 31.4896 57.7903 30.1913 57.7903 28.184Z" fill="white"/>
        <path d="M70.6778 28.184C70.6778 31.2374 69.0436 33.1991 66.5774 33.1991C65.9526 33.2318 65.3313 33.0879 64.7846 32.7839C64.2378 32.4798 63.7877 32.028 63.4858 31.4801H63.4392V36.3468H61.4223V23.2706H63.3745V24.9049H63.4116C63.7274 24.3596 64.1851 23.9101 64.736 23.6042C65.2869 23.2983 65.9104 23.1475 66.5402 23.1678C69.034 23.1678 70.6778 25.1391 70.6778 28.184ZM68.6048 28.184C68.6048 26.1947 67.5768 24.8869 66.0082 24.8869C64.4672 24.8869 63.4307 26.2223 63.4307 28.184C63.4307 30.1638 64.4672 31.4896 66.0082 31.4896C67.5768 31.4896 68.6048 30.1913 68.6048 28.184H68.6048Z" fill="white"/>
        <path d="M77.8253 29.3414C77.9748 30.6778 79.2731 31.5553 81.0472 31.5553C82.7472 31.5553 83.9702 30.6778 83.9702 29.4727C83.9702 28.4267 83.2326 27.8003 81.486 27.3711L79.7394 26.9503C77.2647 26.3526 76.1158 25.1952 76.1158 23.3172C76.1158 20.9919 78.1422 19.3948 81.0197 19.3948C83.8674 19.3948 85.8196 20.9919 85.8854 23.3172H83.8494C83.7275 21.9723 82.6157 21.1605 80.991 21.1605C79.3663 21.1605 78.2545 21.9818 78.2545 23.1773C78.2545 24.1301 78.9646 24.6908 80.7017 25.12L82.1865 25.4845C84.9516 26.1385 86.1005 27.2492 86.1005 29.2204C86.1005 31.7418 84.0921 33.3209 80.8978 33.3209C77.909 33.3209 75.8911 31.7789 75.7607 29.3413L77.8253 29.3414Z" fill="white"/>
        <path d="M90.4532 20.9453V23.2706H92.3217V24.8678H90.4532V30.2846C90.4532 31.1261 90.8273 31.5182 91.6487 31.5182C91.8705 31.5143 92.0919 31.4988 92.3121 31.4715V33.0592C91.9428 33.1282 91.5675 33.1594 91.1919 33.1524C89.2026 33.1524 88.4268 32.4052 88.4268 30.4997V24.8678H86.9981V23.2706H88.4268V20.9453H90.4532Z" fill="white"/>
        <path d="M93.4038 28.1841C93.4038 25.0926 95.2246 23.1499 98.0639 23.1499C100.913 23.1499 102.725 25.0925 102.725 28.1841C102.725 31.2841 100.922 33.2183 98.0639 33.2183C95.2065 33.2183 93.4038 31.2841 93.4038 28.1841ZM100.67 28.1841C100.67 26.0634 99.6981 24.8117 98.0638 24.8117C96.4296 24.8117 95.4588 26.0729 95.4588 28.1841C95.4588 30.3133 96.4296 31.5554 98.0638 31.5554C99.6981 31.5554 100.67 30.3133 100.67 28.1841H100.67Z" fill="white"/>
        <path d="M104.388 23.2705H106.311V24.9429H106.358C106.488 24.4206 106.794 23.959 107.225 23.6357C107.655 23.3124 108.184 23.1472 108.722 23.1677C108.954 23.1669 109.186 23.1922 109.413 23.243V25.1295C109.119 25.0398 108.813 24.9986 108.506 25.0076C108.213 24.9957 107.921 25.0474 107.65 25.159C107.379 25.2707 107.135 25.4397 106.936 25.6545C106.736 25.8692 106.585 26.1247 106.493 26.4032C106.402 26.6818 106.372 26.9769 106.405 27.2682V33.0962H104.388L104.388 23.2705Z" fill="white"/>
        <path d="M118.711 30.2105C118.44 31.9942 116.703 33.2183 114.481 33.2183C111.622 33.2183 109.848 31.3032 109.848 28.2307C109.848 25.1487 111.632 23.1499 114.396 23.1499C117.114 23.1499 118.824 25.0173 118.824 27.9965V28.6875H111.884V28.8094C111.852 29.171 111.897 29.5353 112.017 29.8781C112.136 30.2208 112.328 30.5342 112.578 30.7975C112.828 31.0607 113.131 31.2677 113.467 31.4048C113.803 31.5419 114.165 31.6059 114.527 31.5925C115.004 31.6372 115.482 31.5268 115.891 31.2778C116.3 31.0288 116.617 30.6545 116.796 30.2105L118.711 30.2105ZM111.894 27.2779H116.806C116.824 26.9528 116.775 26.6274 116.661 26.3222C116.548 26.0171 116.372 25.7386 116.146 25.5045C115.919 25.2703 115.647 25.0855 115.346 24.9615C115.045 24.8375 114.721 24.7772 114.396 24.7842C114.067 24.7822 113.742 24.8453 113.438 24.9698C113.134 25.0944 112.858 25.2778 112.625 25.5097C112.392 25.7415 112.208 26.0172 112.083 26.3207C111.957 26.6242 111.893 26.9495 111.894 27.278V27.2779Z" fill="white"/>
        <path d="M41.0515 9.47561C41.4743 9.44527 41.8986 9.50915 42.2938 9.66264C42.689 9.81613 43.0451 10.0554 43.3366 10.3632C43.6281 10.671 43.8476 11.0397 43.9794 11.4426C44.1112 11.8455 44.1518 12.2727 44.0985 12.6933C44.0985 14.762 42.9804 15.9512 41.0515 15.9512H38.7125V9.47561H41.0515ZM39.7182 15.0354H40.9392C41.2413 15.0535 41.5437 15.004 41.8243 14.8904C42.1048 14.7769 42.3566 14.6022 42.5612 14.3791C42.7657 14.156 42.918 13.8901 43.0068 13.6008C43.0956 13.3114 43.1188 13.0059 43.0747 12.7065C43.1156 12.4082 43.0901 12.1046 42.9999 11.8173C42.9097 11.5301 42.7571 11.2664 42.553 11.0451C42.3489 10.8237 42.0983 10.6503 41.8193 10.5372C41.5403 10.424 41.2398 10.374 40.9392 10.3907H39.7182V15.0354Z" fill="white"/>
        <path d="M45.2347 13.5056C45.204 13.1844 45.2407 12.8604 45.3426 12.5543C45.4444 12.2481 45.6091 11.9667 45.8261 11.728C46.0431 11.4892 46.3076 11.2985 46.6026 11.1679C46.8977 11.0374 47.2167 10.97 47.5393 10.97C47.8619 10.97 48.181 11.0374 48.476 11.1679C48.7711 11.2985 49.0355 11.4892 49.2525 11.728C49.4695 11.9667 49.6342 12.2481 49.7361 12.5543C49.8379 12.8604 49.8746 13.1844 49.8439 13.5056C49.8752 13.827 49.8389 14.1515 49.7374 14.4581C49.6358 14.7648 49.4712 15.0467 49.2541 15.2859C49.0371 15.5251 48.7724 15.7163 48.4771 15.8471C48.1817 15.9779 47.8623 16.0455 47.5393 16.0455C47.2163 16.0455 46.8969 15.9779 46.6016 15.8471C46.3062 15.7163 46.0415 15.5251 45.8245 15.2859C45.6075 15.0467 45.4429 14.7648 45.3413 14.4581C45.2397 14.1515 45.2034 13.827 45.2347 13.5056ZM48.8519 13.5056C48.8519 12.4463 48.376 11.8268 47.5409 11.8268C46.7026 11.8268 46.231 12.4463 46.231 13.5056C46.231 14.5734 46.7026 15.1881 47.5409 15.1881C48.3761 15.188 48.8519 14.5691 48.8519 13.5056H48.8519Z" fill="white"/>
        <path d="M55.9708 15.9511H54.9703L53.9603 12.3519H53.884L52.8782 15.9511H51.8872L50.5402 11.0642H51.5184L52.3938 14.7932H52.4659L53.4706 11.0642H54.3959L55.4006 14.7932H55.4769L56.3481 11.0642H57.3125L55.9708 15.9511Z" fill="white"/>
        <path d="M58.4455 11.0642H59.3739V11.8406H59.446C59.5682 11.5617 59.7744 11.328 60.0358 11.1719C60.2972 11.0159 60.6008 10.9452 60.9043 10.9699C61.1421 10.952 61.3808 10.9879 61.6029 11.0748C61.8249 11.1617 62.0245 11.2975 62.187 11.4721C62.3494 11.6466 62.4705 11.8555 62.5413 12.0832C62.6121 12.3109 62.6307 12.5516 62.5958 12.7875V15.9511H61.6313V13.0297C61.6313 12.2444 61.2901 11.8538 60.5768 11.8538C60.4154 11.8463 60.2542 11.8738 60.1044 11.9344C59.9545 11.9949 59.8196 12.0872 59.7087 12.2048C59.5979 12.3225 59.5138 12.4627 59.4622 12.6158C59.4107 12.769 59.3928 12.9315 59.4099 13.0922V15.9511H58.4455L58.4455 11.0642Z" fill="white"/>
        <path d="M64.1325 9.15649H65.097V15.9511H64.1325V9.15649Z" fill="white"/>
        <path d="M66.4377 13.5057C66.407 13.1845 66.4438 12.8604 66.5456 12.5543C66.6475 12.2482 66.8122 11.9667 67.0292 11.728C67.2462 11.4892 67.5108 11.2985 67.8058 11.1679C68.1009 11.0374 68.4199 10.97 68.7426 10.97C69.0652 10.97 69.3843 11.0374 69.6793 11.1679C69.9744 11.2985 70.2389 11.4892 70.4559 11.728C70.6729 11.9667 70.8376 12.2482 70.9395 12.5543C71.0414 12.8604 71.0781 13.1845 71.0474 13.5057C71.0787 13.8272 71.0424 14.1516 70.9408 14.4582C70.8392 14.7649 70.6745 15.0468 70.4575 15.286C70.2404 15.5252 69.9757 15.7164 69.6803 15.8472C69.385 15.978 69.0656 16.0456 68.7426 16.0456C68.4196 16.0456 68.1001 15.978 67.8048 15.8472C67.5094 15.7164 67.2447 15.5252 67.0277 15.286C66.8106 15.0468 66.646 14.7649 66.5444 14.4582C66.4428 14.1516 66.4064 13.8272 66.4377 13.5057ZM70.0549 13.5057C70.0549 12.4464 69.579 11.8269 68.7439 11.8269C67.9056 11.8269 67.434 12.4464 67.434 13.5057C67.434 14.5735 67.9056 15.1881 68.7439 15.1881C69.579 15.1881 70.0549 14.5692 70.0549 13.5057H70.0549Z" fill="white"/>
        <path d="M72.0627 14.5692C72.0627 13.6895 72.7177 13.1824 73.8803 13.1103L75.2041 13.034V12.6122C75.2041 12.096 74.8628 11.8046 74.2036 11.8046C73.6652 11.8046 73.2922 12.0022 73.1851 12.3478H72.2514C72.35 11.5084 73.1395 10.97 74.2481 10.97C75.4733 10.97 76.1643 11.5799 76.1643 12.6122V15.9512H75.2359V15.2644H75.1596C75.0047 15.5108 74.7872 15.7116 74.5293 15.8464C74.2714 15.9812 73.9824 16.0451 73.6917 16.0317C73.4866 16.053 73.2792 16.0311 73.083 15.9674C72.8869 15.9037 72.7062 15.7996 72.5527 15.6618C72.3993 15.524 72.2764 15.3556 72.192 15.1674C72.1076 14.9792 72.0636 14.7754 72.0627 14.5692ZM75.2041 14.1516V13.743L74.0107 13.8193C73.3377 13.8644 73.0325 14.0933 73.0325 14.5241C73.0325 14.9639 73.414 15.2199 73.9387 15.2199C74.0924 15.2354 74.2477 15.2199 74.3953 15.1742C74.5429 15.1286 74.6798 15.0537 74.7979 14.954C74.9159 14.8543 75.0127 14.7319 75.0825 14.5941C75.1523 14.4562 75.1936 14.3057 75.2041 14.1516Z" fill="white"/>
        <path d="M77.4318 13.5055C77.4318 11.9614 78.2256 10.9831 79.4603 10.9831C79.7658 10.9691 80.0689 11.0422 80.3342 11.194C80.5996 11.3459 80.8163 11.5701 80.9589 11.8405H81.031V9.15649H81.9955V15.9511H81.0713V15.179H80.995C80.8413 15.4476 80.6171 15.669 80.3466 15.8193C80.0761 15.9696 79.7696 16.043 79.4604 16.0316C78.2172 16.0317 77.4318 15.0534 77.4318 13.5055ZM78.4281 13.5055C78.4281 14.542 78.9167 15.1658 79.7338 15.1658C80.5467 15.1658 81.0491 14.5331 81.0491 13.5098C81.0491 12.4913 80.5414 11.8495 79.7338 11.8495C78.922 11.8495 78.4281 12.4775 78.4281 13.5055H78.4281Z" fill="white"/>
        <path d="M85.9858 13.5056C85.9551 13.1844 85.9918 12.8604 86.0936 12.5543C86.1955 12.2481 86.3602 11.9667 86.5772 11.728C86.7942 11.4892 87.0586 11.2985 87.3537 11.1679C87.6487 11.0374 87.9678 10.97 88.2904 10.97C88.613 10.97 88.9321 11.0374 89.2271 11.1679C89.5221 11.2985 89.7866 11.4892 90.0036 11.728C90.2206 11.9667 90.3853 12.2481 90.4871 12.5543C90.589 12.8604 90.6257 13.1844 90.595 13.5056C90.6263 13.827 90.59 14.1515 90.4884 14.4581C90.3868 14.7648 90.2222 15.0467 90.0052 15.2859C89.7882 15.5251 89.5235 15.7163 89.2281 15.8471C88.9328 15.9779 88.6134 16.0455 88.2904 16.0455C87.9674 16.0455 87.648 15.9779 87.3526 15.8471C87.0573 15.7163 86.7926 15.5251 86.5756 15.2859C86.3585 15.0467 86.1939 14.7648 86.0923 14.4581C85.9908 14.1515 85.9545 13.827 85.9858 13.5056ZM89.603 13.5056C89.603 12.4463 89.1271 11.8268 88.292 11.8268C87.4537 11.8268 86.9821 12.4463 86.9821 13.5056C86.9821 14.5734 87.4537 15.1881 88.292 15.1881C89.1271 15.188 89.603 14.5691 89.603 13.5056Z" fill="white"/>
        <path d="M91.889 11.0642H92.8174V11.8406H92.8895C93.0118 11.5617 93.218 11.328 93.4794 11.1719C93.7408 11.0159 94.0444 10.9452 94.3478 10.9699C94.5856 10.952 94.8244 10.9879 95.0464 11.0748C95.2685 11.1617 95.4681 11.2975 95.6305 11.4721C95.793 11.6466 95.9141 11.8555 95.9848 12.0832C96.0556 12.3109 96.0742 12.5516 96.0393 12.7875V15.9511H95.0749V13.0297C95.0749 12.2444 94.7336 11.8538 94.0203 11.8538C93.8589 11.8463 93.6977 11.8738 93.5479 11.9344C93.3981 11.9949 93.2631 12.0872 93.1523 12.2048C93.0415 12.3225 92.9574 12.4627 92.9058 12.6158C92.8542 12.769 92.8364 12.9315 92.8535 13.0922V15.9511H91.889V11.0642Z" fill="white"/>
        <path d="M101.489 9.84741V11.0864H102.548V11.8987H101.489V14.4116C101.489 14.9235 101.7 15.1476 102.18 15.1476C102.303 15.1472 102.426 15.1398 102.548 15.1254V15.9287C102.375 15.9597 102.199 15.9762 102.023 15.978C100.951 15.978 100.523 15.6007 100.523 14.6585V11.8987H99.7477V11.0863H100.523V9.84741H101.489Z" fill="white"/>
        <path d="M103.865 9.15649H104.821V11.8495H104.897C105.026 11.5681 105.237 11.333 105.504 11.1764C105.771 11.0197 106.079 10.9491 106.387 10.9741C106.624 10.9612 106.86 11.0007 107.08 11.0898C107.3 11.1788 107.497 11.3152 107.657 11.4892C107.818 11.6632 107.939 11.8706 108.01 12.0964C108.081 12.3223 108.102 12.5612 108.07 12.796V15.9511H107.105V13.0339C107.105 12.2533 106.741 11.858 106.06 11.858C105.894 11.8444 105.728 11.8672 105.572 11.9248C105.415 11.9823 105.274 12.0733 105.157 12.1913C105.04 12.3093 104.95 12.4515 104.893 12.608C104.837 12.7644 104.815 12.9313 104.83 13.0969V15.9511H103.865L103.865 9.15649Z" fill="white"/>
        <path d="M113.694 14.6315C113.563 15.0782 113.279 15.4645 112.892 15.7229C112.505 15.9814 112.039 16.0955 111.576 16.0453C111.254 16.0538 110.934 15.9922 110.639 15.8646C110.343 15.7371 110.079 15.5467 109.864 15.3067C109.649 15.0667 109.489 14.7828 109.395 14.4748C109.301 14.1668 109.275 13.842 109.319 13.5229C109.276 13.2029 109.302 12.8774 109.396 12.5685C109.49 12.2595 109.649 11.9743 109.863 11.7322C110.077 11.4902 110.34 11.2968 110.635 11.1652C110.93 11.0337 111.249 10.9671 111.572 10.9698C112.932 10.9698 113.752 11.8988 113.752 13.4334V13.7699H110.301V13.8239C110.286 14.0033 110.309 14.1838 110.368 14.3539C110.426 14.524 110.52 14.68 110.642 14.8118C110.765 14.9436 110.914 15.0484 111.079 15.1193C111.244 15.1903 111.423 15.2259 111.603 15.2239C111.834 15.2516 112.067 15.2101 112.274 15.1046C112.481 14.9991 112.652 14.8344 112.765 14.6315L113.694 14.6315ZM110.301 13.0566H112.77C112.782 12.8926 112.76 12.7279 112.704 12.573C112.649 12.4181 112.562 12.2765 112.449 12.1573C112.335 12.038 112.198 11.9438 112.046 11.8807C111.895 11.8175 111.731 11.7869 111.567 11.7907C111.4 11.7886 111.234 11.8199 111.08 11.8828C110.925 11.9456 110.785 12.0388 110.667 12.1568C110.549 12.2748 110.456 12.4152 110.393 12.5697C110.33 12.7243 110.299 12.8898 110.301 13.0566H110.301Z" fill="white"/>
    </g>
    <g clip-path="url(#clip0)">
        <path fill-rule="evenodd" clip-rule="evenodd" d="M344.572 43.4109H208.917C205.925 43.4109 203.488 40.9643 203.488 37.9845V5.42636C203.488 2.43577 205.925 0 208.917 0H344.572C347.561 0 350 2.43577 350 5.42636V37.9845C350 40.9643 347.561 43.4109 344.572 43.4109Z" fill="black"/>
        <path fill-rule="evenodd" clip-rule="evenodd" d="M344.572 0.868758C347.081 0.868758 349.135 2.91751 349.135 5.42636V37.9845C349.135 40.4933 347.094 42.5421 344.572 42.5421H208.917C206.407 42.5421 204.354 40.4933 204.354 37.9845V5.42636C204.354 2.91751 206.394 0.868758 208.917 0.868758H344.572ZM344.572 0H208.917C205.925 0 203.488 2.4466 203.488 5.42636V37.9845C203.488 40.9751 205.925 43.4109 208.917 43.4109H344.572C347.561 43.4109 350 40.9751 350 37.9845V5.42636C350 2.4466 347.561 0 344.572 0Z" fill="#A6A6A6"/>
        <path d="M280.671 14.3603C279.693 14.3603 278.868 14.0165 278.216 13.3399C277.569 12.6823 277.208 11.7756 277.224 10.85C277.224 9.8622 277.558 9.02592 278.216 8.36285C278.865 7.68624 279.69 7.34253 280.668 7.34253C281.636 7.34253 282.461 7.68624 283.124 8.36285C283.781 9.04757 284.116 9.88385 284.116 10.85C284.105 11.8406 283.771 12.6769 283.124 13.3372C282.474 14.0192 281.649 14.3603 280.671 14.3603ZM251.559 14.3603C250.602 14.3603 249.772 14.022 249.093 13.3535C248.419 12.6877 248.077 11.846 248.077 10.8527C248.077 9.85949 248.419 9.0178 249.093 8.35202C249.759 7.68354 250.589 7.34524 251.559 7.34524C252.034 7.34524 252.494 7.43996 252.937 7.63212C253.37 7.81886 253.724 8.07326 253.985 8.3845L254.05 8.46298L253.319 9.18289L253.244 9.09358C252.831 8.60101 252.279 8.36014 251.548 8.36014C250.896 8.36014 250.327 8.59289 249.858 9.05298C249.387 9.51578 249.147 10.122 249.147 10.8555C249.147 11.5889 249.387 12.1951 249.858 12.6579C250.327 13.118 250.896 13.3508 251.548 13.3508C252.244 13.3508 252.829 13.118 253.284 12.6579C253.554 12.3873 253.721 12.0084 253.78 11.5293H251.438V10.5172H254.785L254.799 10.6092C254.823 10.7797 254.847 10.9556 254.847 11.118C254.847 12.0517 254.567 12.8068 254.012 13.3643C253.381 14.0247 252.556 14.3603 251.559 14.3603ZM290.266 14.2168H289.234L286.072 9.13688L286.099 10.0516V14.2141H285.067V7.48868H286.245L286.277 7.5401L289.25 12.325L289.223 11.413V7.48868H290.266V14.2168ZM272.914 14.2168H271.868V8.50087H270.054V7.48868H274.725V8.50087H272.911V14.2168H272.914ZM269.203 14.2168H268.16V7.48868H269.203V14.2168ZM263.34 14.2168H262.297V8.50087H260.483V7.48868H265.154V8.50087H263.34V14.2168ZM259.823 14.206H255.823V7.48868H259.823V8.50087H256.869V10.3466H259.535V11.348H256.869V13.1938H259.823V14.206ZM278.981 12.6444C279.447 13.1126 280.013 13.3481 280.671 13.3481C281.348 13.3481 281.9 13.118 282.361 12.6444C282.819 12.1843 283.051 11.5808 283.051 10.8527C283.051 10.1247 282.819 9.51849 282.364 9.0611C281.897 8.59289 281.329 8.35743 280.674 8.35743C279.997 8.35743 279.445 8.58748 278.987 9.0611C278.528 9.52119 278.297 10.1247 278.297 10.8527C278.297 11.5808 278.526 12.187 278.981 12.6444Z" fill="white"/>
        <path fill-rule="evenodd" clip-rule="evenodd" d="M277.127 23.6108C274.58 23.6108 272.515 25.5513 272.515 28.2279C272.515 30.8802 274.593 32.8451 277.127 32.8451C279.674 32.8451 281.739 30.8911 281.739 28.2279C281.739 25.5513 279.674 23.6108 277.127 23.6108ZM277.127 31.0156C275.733 31.0156 274.534 29.8572 274.534 28.2171C274.534 26.5527 275.736 25.4187 277.127 25.4187C278.52 25.4187 279.72 26.5527 279.72 28.2171C279.722 29.868 278.52 31.0156 277.127 31.0156ZM267.065 23.6108C264.518 23.6108 262.454 25.5513 262.454 28.2279C262.454 30.8802 264.532 32.8451 267.065 32.8451C269.612 32.8451 271.677 30.8911 271.677 28.2279C271.677 25.5513 269.61 23.6108 267.065 23.6108ZM267.065 31.0156C265.672 31.0156 264.472 29.8572 264.472 28.2171C264.472 26.5527 265.674 25.4187 267.065 25.4187C268.459 25.4187 269.658 26.5527 269.658 28.2171C269.658 29.868 268.459 31.0156 267.065 31.0156ZM255.093 25.0208V26.9749H259.764C259.621 28.071 259.26 28.8802 258.707 29.435C258.022 30.1224 256.966 30.8694 255.103 30.8694C252.233 30.8694 249.988 28.5419 249.988 25.6596C249.988 22.7772 252.233 20.4497 255.103 20.4497C256.653 20.4497 257.783 21.0641 258.621 21.8489L260.001 20.4633C258.836 19.3428 257.287 18.4849 255.114 18.4849C251.176 18.4849 247.872 21.7055 247.872 25.6487C247.872 29.6028 251.174 32.8126 255.114 32.8126C257.241 32.8126 258.836 32.1144 260.098 30.799C261.383 29.5081 261.79 27.6867 261.79 26.2171C261.79 25.7597 261.755 25.3483 261.683 24.9992H255.09C255.093 24.9965 255.093 25.0208 255.093 25.0208ZM304.064 26.5419C303.678 25.5053 302.514 23.6 300.126 23.6C297.759 23.6 295.792 25.4701 295.792 28.2171C295.792 30.8099 297.738 32.8343 300.355 32.8343C302.457 32.8343 303.681 31.5433 304.185 30.7855L302.624 29.7354C302.107 30.5067 301.387 31.0128 300.366 31.0128C299.334 31.0128 298.611 30.5419 298.131 29.6136L304.279 27.0561C304.279 27.0588 304.064 26.5419 304.064 26.5419ZM297.794 28.0845C297.746 26.301 299.174 25.3943 300.196 25.3943C301.002 25.3943 301.673 25.7922 301.902 26.3713L297.794 28.0845ZM292.8 32.5582H294.819V18.9937H292.8V32.5582ZM289.485 24.6365H289.412C288.957 24.0925 288.091 23.6 286.986 23.6C284.693 23.6 282.579 25.6271 282.579 28.2307C282.579 30.8234 284.682 32.8261 286.986 32.8261C288.078 32.8261 288.957 32.3309 289.412 31.7761H289.485V32.4391C289.485 34.201 288.547 35.151 287.035 35.151C285.798 35.151 285.029 34.2578 284.717 33.5109L282.962 34.247C283.466 35.4649 284.811 36.9724 287.032 36.9724C289.399 36.9724 291.404 35.5732 291.404 32.1604V23.876H289.496V24.6365C289.498 24.6365 289.485 24.6365 289.485 24.6365ZM287.167 31.0156C285.773 31.0156 284.609 29.8464 284.609 28.2307C284.609 26.6014 285.773 25.4214 287.167 25.4214C288.547 25.4214 289.617 26.6149 289.617 28.2307C289.63 29.8464 288.55 31.0156 287.167 31.0156ZM313.516 18.9937H308.689V32.5582H310.708V27.4214H313.519C315.753 27.4214 317.95 25.7949 317.95 23.213C317.95 20.631 315.761 18.9937 313.516 18.9937ZM313.576 25.5269H310.705V20.8719H313.576C315.088 20.8719 315.942 22.125 315.942 23.1994C315.942 24.2631 315.077 25.5269 313.576 25.5269ZM326.041 23.5865C324.575 23.5865 323.063 24.2387 322.438 25.6596L324.227 26.4065C324.613 25.6596 325.319 25.4052 326.066 25.4052C327.111 25.4052 328.168 26.033 328.192 27.1535V27.2969C327.831 27.0913 327.039 26.7773 326.09 26.7773C324.157 26.7773 322.198 27.8382 322.198 29.8274C322.198 31.6489 323.783 32.818 325.548 32.818C326.904 32.818 327.65 32.2037 328.117 31.4919H328.19V32.542H330.136V27.3457C330.136 24.9261 328.346 23.5865 326.041 23.5865ZM325.788 31.0156C325.128 31.0156 324.203 30.6908 324.203 29.8572C324.203 28.8071 325.357 28.4093 326.341 28.4093C327.23 28.4093 327.65 28.6014 328.179 28.8667C328.033 30.0845 327.009 31.0047 325.788 31.0156ZM337.235 23.876L334.917 29.7598H334.844L332.443 23.876H330.27L333.874 32.1008L331.82 36.672H333.922L339.467 23.876H337.235ZM319.063 32.5582H321.082V18.9937H319.063V32.5582Z" fill="white"/>
        <path fill-rule="evenodd" clip-rule="evenodd" d="M214.766 8.1761C214.453 8.5144 214.272 9.03133 214.272 9.70793V33.7057C214.272 34.3823 214.453 34.8992 214.776 35.224L214.86 35.2971L228.25 21.8516V21.5512L214.849 8.10303L214.766 8.1761Z" fill="url(#paint0_linear)"/>
        <path fill-rule="evenodd" clip-rule="evenodd" d="M232.705 26.347L228.239 21.8624V21.5485L232.705 17.064L232.802 17.1235L238.085 20.1384C239.597 20.9937 239.597 22.4064 238.085 23.2725L232.802 26.2874L232.705 26.347Z" fill="url(#paint1_linear)"/>
        <path fill-rule="evenodd" clip-rule="evenodd" d="M232.803 26.2873L228.239 21.7053L214.766 35.2347C215.259 35.7651 216.086 35.8247 217.011 35.3078L232.803 26.2873Z" fill="url(#paint2_linear)"/>
        <path fill-rule="evenodd" clip-rule="evenodd" d="M232.803 17.1235L217.011 8.11661C216.086 7.58615 215.256 7.65922 214.766 8.18968L228.239 21.7055L232.803 17.1235Z" fill="url(#paint3_linear)"/>
        <path opacity="0.2" fill-rule="evenodd" clip-rule="evenodd" d="M232.705 26.1899L217.021 35.1373C216.145 35.6434 215.364 35.6082 214.86 35.1481L214.776 35.232L214.86 35.3051C215.364 35.7625 216.145 35.8004 217.021 35.2943L232.813 26.2874L232.705 26.1899Z" fill="black"/>
        <path opacity="0.12" fill-rule="evenodd" clip-rule="evenodd" d="M238.085 23.1154L232.692 26.1898L232.789 26.2873L238.072 23.2723C238.829 22.8393 239.201 22.271 239.201 21.7053C239.155 22.225 238.77 22.7175 238.085 23.1154Z" fill="black"/>
        <path opacity="0.25" fill-rule="evenodd" clip-rule="evenodd" d="M217.011 8.27342L238.085 20.2953C238.77 20.6823 239.155 21.1884 239.215 21.7053C239.215 21.1397 238.843 20.5714 238.085 20.1383L217.011 8.11645C215.499 7.24769 214.272 7.97301 214.272 9.70782V9.86479C214.272 8.12728 215.499 7.41549 217.011 8.27342Z" fill="white"/>
    </g>
    <defs>
        <linearGradient id="paint0_linear" x1="227.049" y1="9.44902" x2="205.589" y2="15.1438" gradientUnits="userSpaceOnUse">
            <stop stop-color="#00A0FF"/>
            <stop offset="0.00657" stop-color="#00A1FF"/>
            <stop offset="0.2601" stop-color="#00BEFF"/>
            <stop offset="0.5122" stop-color="#00D2FF"/>
            <stop offset="0.7604" stop-color="#00DFFF"/>
            <stop offset="1" stop-color="#00E3FF"/>
        </linearGradient>
        <linearGradient id="paint1_linear" x1="240.057" y1="21.7055" x2="213.905" y2="21.7055" gradientUnits="userSpaceOnUse">
            <stop stop-color="#FFE000"/>
            <stop offset="0.4087" stop-color="#FFBD00"/>
            <stop offset="0.7754" stop-color="#FFA500"/>
            <stop offset="1" stop-color="#FF9C00"/>
        </linearGradient>
        <linearGradient id="paint2_linear" x1="230.321" y1="24.1986" x2="212.997" y2="53.2366" gradientUnits="userSpaceOnUse">
            <stop stop-color="#FF3A44"/>
            <stop offset="1" stop-color="#C31162"/>
        </linearGradient>
        <linearGradient id="paint3_linear" x1="211.373" y1="0.194112" x2="219.102" y2="13.163" gradientUnits="userSpaceOnUse">
            <stop stop-color="#32A071"/>
            <stop offset="0.0685" stop-color="#2DA771"/>
            <stop offset="0.4762" stop-color="#15CF74"/>
            <stop offset="0.8009" stop-color="#06E775"/>
            <stop offset="1" stop-color="#00F076"/>
        </linearGradient>
        <clipPath id="clip0">
            <rect width="146.512" height="43.4109" fill="white" transform="translate(203.488)"/>
        </clipPath>
    </defs>
</svg>
