<svg width="104" height="35" viewBox="0 0 104 35" fill="none" xmlns="http://www.w3.org/2000/svg">
<g opacity="0.8">
<path d="M95.7174 0.259388H8.35023C8.03176 0.259388 7.71712 0.259388 7.3995 0.261088C7.13362 0.262789 6.86986 0.267729 6.60142 0.271886C6.01826 0.278605 5.43648 0.328832 4.86112 0.422132C4.28656 0.517463 3.73001 0.697189 3.21028 0.955231C2.69118 1.21546 2.21687 1.55359 1.80454 1.95737C1.39006 2.36002 1.04455 2.82542 0.781306 3.33569C0.517337 3.84494 0.334301 4.39064 0.238518 4.95396C0.141824 5.51657 0.0897927 6.08566 0.0828898 6.65614C0.0748305 6.91682 0.0739794 7.17837 0.0697327 7.43909V27.0917C0.0739794 27.3557 0.0748305 27.6115 0.0828898 27.8756C0.0897948 28.446 0.141827 29.0151 0.238518 29.5776C0.334036 30.1413 0.517084 30.6873 0.781306 31.1968C1.04443 31.7054 1.38998 32.1689 1.80454 32.5693C2.2153 32.9749 2.68992 33.3132 3.21028 33.5715C3.73001 33.8302 4.2865 34.011 4.86112 34.1078C5.43657 34.2004 6.0183 34.2506 6.60142 34.2581C6.86986 34.2639 7.13362 34.2672 7.3995 34.2672C7.71711 34.2689 8.03178 34.2689 8.35023 34.2689H95.7174C96.0295 34.2689 96.3467 34.2689 96.6588 34.2672C96.9235 34.2672 97.1948 34.2639 97.4595 34.2581C98.0415 34.251 98.6221 34.2007 99.1964 34.1078C99.7729 34.0103 100.331 33.8296 100.854 33.5715C101.373 33.3131 101.848 32.9747 102.258 32.5693C102.672 32.1673 103.018 31.7041 103.284 31.1968C103.546 30.6869 103.728 30.141 103.822 29.5776C103.919 29.015 103.973 28.446 103.983 27.8756C103.986 27.6115 103.986 27.3557 103.986 27.0917C103.993 26.7828 103.993 26.4756 103.993 26.1617V8.36737C103.993 8.056 103.993 7.74713 103.986 7.43909C103.986 7.17837 103.986 6.91682 103.983 6.6561C103.973 6.08558 103.919 5.51661 103.822 4.95393C103.728 4.39093 103.546 3.84527 103.284 3.33565C102.748 2.31288 101.898 1.48035 100.854 0.955155C100.331 0.697743 99.7728 0.518065 99.1964 0.422055C98.6222 0.328345 98.0415 0.2781 97.4595 0.271767C97.1948 0.267618 96.9235 0.262636 96.6588 0.260978C96.3467 0.259277 96.0295 0.259277 95.7174 0.259277V0.259388Z" fill="#A6A6A6"/>
<path d="M7.40313 33.5245C7.13852 33.5245 6.88031 33.5212 6.61779 33.5154C6.07394 33.5085 5.53137 33.4622 4.99451 33.3768C4.49392 33.2924 4.00899 33.1354 3.5557 32.9109C3.10657 32.6884 2.69692 32.3965 2.34246 32.0466C1.98287 31.7008 1.68349 31.2997 1.45619 30.8592C1.22638 30.4159 1.06735 29.9407 0.984614 29.4502C0.895271 28.9231 0.846932 28.3902 0.840015 27.856C0.834509 27.6767 0.827301 27.0796 0.827301 27.0796V7.43867C0.827301 7.43867 0.834978 6.85081 0.840059 6.6781C0.846681 6.14473 0.894739 5.61263 0.983815 5.08639C1.0667 4.59455 1.22586 4.11799 1.45579 3.67321C1.68225 3.23306 1.97997 2.83167 2.3374 2.48462C2.69442 2.13427 3.10538 1.84093 3.55527 1.61528C4.00752 1.39157 4.49154 1.23567 4.99112 1.1528C5.52973 1.06656 6.07419 1.01993 6.61992 1.01331L7.40355 1.00293H96.654L97.447 1.01373C97.9877 1.02002 98.5272 1.06623 99.0609 1.15197C99.5656 1.23587 100.055 1.39286 100.512 1.61777C101.413 2.07252 102.147 2.79197 102.609 3.67529C102.836 4.11699 102.992 4.58966 103.074 5.07726C103.164 5.60781 103.215 6.1441 103.225 6.68184C103.228 6.92263 103.228 7.18127 103.228 7.43867C103.234 7.75751 103.234 8.06099 103.234 8.36695V26.1613C103.234 26.4702 103.234 26.7716 103.228 27.0755C103.228 27.352 103.228 27.6053 103.224 27.8659C103.214 28.3941 103.164 28.9208 103.076 29.4419C102.995 29.9359 102.837 30.4148 102.607 30.8618C102.378 31.2974 102.08 31.6951 101.725 32.0399C101.37 32.3918 100.96 32.6853 100.51 32.9093C100.053 33.1355 99.565 33.2931 99.0609 33.3768C98.5241 33.4626 97.9815 33.509 97.4376 33.5154C97.1832 33.5212 96.9169 33.5245 96.6582 33.5245L95.7168 33.5262L7.40313 33.5245Z" fill="black"/>
<path d="M21.5806 17.5207C21.5899 16.811 21.7825 16.1152 22.1403 15.4979C22.4981 14.8807 23.0096 14.3621 23.6272 13.9904C23.2349 13.4419 22.7173 12.9904 22.1156 12.672C21.5139 12.3535 20.8447 12.1768 20.161 12.1559C18.7026 12.006 17.2888 13.0102 16.5457 13.0102C15.7882 13.0102 14.644 12.1708 13.4118 12.1956C12.6149 12.2208 11.8382 12.4477 11.1574 12.8541C10.4766 13.2606 9.91503 13.8328 9.52729 14.5149C7.84769 17.3619 9.10052 21.5459 10.7094 23.8472C11.5144 24.9741 12.4552 26.2328 13.6862 26.1882C14.8908 26.1392 15.3407 25.4361 16.7948 25.4361C18.2353 25.4361 18.6574 26.1882 19.9134 26.1598C21.206 26.1392 22.0204 25.0279 22.7971 23.8904C23.3755 23.0874 23.8206 22.2 24.1158 21.261C23.3649 20.95 22.724 20.4295 22.2732 19.7644C21.8223 19.0993 21.5815 18.3189 21.5806 17.5207Z" fill="white"/>
<path d="M19.209 10.6425C19.914 9.81399 20.2613 8.74903 20.1772 7.67383C19.1002 7.78458 18.1053 8.28854 17.3908 9.0853C17.0414 9.47453 16.7739 9.92736 16.6034 10.4179C16.4329 10.9084 16.3628 11.427 16.3972 11.9441C16.9359 11.9495 17.4689 11.8352 17.9559 11.6098C18.443 11.3843 18.8714 11.0536 19.209 10.6425Z" fill="white"/>
<path d="M36.8077 23.3356H32.697L31.7098 26.1894H29.9686L33.8623 15.6311H35.6713L39.5649 26.1894H37.7941L36.8077 23.3356ZM33.1227 22.0187H36.3812L34.7748 17.3872H34.7299L33.1227 22.0187Z" fill="white"/>
<path d="M47.9739 22.3397C47.9739 24.7319 46.6661 26.2688 44.6926 26.2688C44.1926 26.2944 43.6955 26.1816 43.2579 25.9434C42.8204 25.7053 42.4602 25.3513 42.2187 24.922H42.1813V28.7348H40.5674V18.4904H42.1296V19.7707H42.1593C42.412 19.3435 42.7782 18.9914 43.2191 18.7517C43.6599 18.5121 44.1589 18.394 44.6629 18.4099C46.6585 18.4099 47.9739 19.9542 47.9739 22.3397ZM46.315 22.3397C46.315 20.7812 45.4923 19.7566 44.2371 19.7566C43.004 19.7566 42.1745 20.8028 42.1745 22.3397C42.1745 23.8908 43.004 24.9295 44.2371 24.9295C45.4923 24.9295 46.315 23.9123 46.315 22.3397Z" fill="white"/>
<path d="M56.628 22.3397C56.628 24.7319 55.3202 26.2688 53.3466 26.2688C52.8467 26.2944 52.3495 26.1816 51.912 25.9434C51.4745 25.7052 51.1143 25.3512 50.8727 24.922H50.8354V28.7348H49.2214V18.4904H50.7836V19.7707H50.8133C51.066 19.3435 51.4323 18.9914 51.8731 18.7517C52.314 18.5121 52.813 18.394 53.3169 18.4099C55.3126 18.4099 56.628 19.9542 56.628 22.3397ZM54.9691 22.3397C54.9691 20.7812 54.1464 19.7566 52.8912 19.7566C51.6581 19.7566 50.8286 20.8028 50.8286 22.3397C50.8286 23.8907 51.6581 24.9295 52.8912 24.9295C54.1464 24.9295 54.9691 23.9123 54.9691 22.3397H54.9691Z" fill="white"/>
<path d="M62.3476 23.2464C62.4672 24.2934 63.5061 24.9809 64.9258 24.9809C66.2862 24.9809 67.2649 24.2934 67.2649 23.3493C67.2649 22.5298 66.6746 22.0391 65.277 21.7028L63.8793 21.3731C61.899 20.9049 60.9796 19.9982 60.9796 18.5268C60.9796 16.7051 62.6012 15.4539 64.9038 15.4539C67.1826 15.4539 68.7449 16.7051 68.7974 18.5268H67.1682C67.0707 17.4732 66.181 16.8372 64.8809 16.8372C63.5807 16.8372 62.6911 17.4807 62.6911 18.4172C62.6911 19.1637 63.2593 19.6029 64.6493 19.9392L65.8375 20.2248C68.0502 20.7371 68.9696 21.6073 68.9696 23.1516C68.9696 25.127 67.3624 26.3641 64.8062 26.3641C62.4146 26.3641 60.7998 25.156 60.6954 23.2463L62.3476 23.2464Z" fill="white"/>
<path d="M72.4527 16.6687V18.4904H73.948V19.7417H72.4527V23.9854C72.4527 24.6447 72.7521 24.9519 73.4094 24.9519C73.5869 24.9489 73.7641 24.9366 73.9403 24.9153V26.1591C73.6448 26.2132 73.3445 26.2377 73.0439 26.2322C71.452 26.2322 70.8312 25.6468 70.8312 24.1539V19.7417H69.6879V18.4904H70.8311V16.6687H72.4527Z" fill="white"/>
<path d="M74.8139 22.3397C74.8139 19.9177 76.2709 18.3958 78.543 18.3958C80.8227 18.3958 82.273 19.9177 82.273 22.3397C82.273 24.7684 80.8304 26.2837 78.543 26.2837C76.2565 26.2837 74.8139 24.7684 74.8139 22.3397ZM80.6285 22.3397C80.6285 20.6783 79.8508 19.6977 78.543 19.6977C77.2352 19.6977 76.4584 20.6857 76.4584 22.3397C76.4584 24.0078 77.2352 24.9809 78.543 24.9809C79.8508 24.9809 80.6285 24.0078 80.6285 22.3397H80.6285Z" fill="white"/>
<path d="M83.6037 18.4903H85.143V19.8006H85.1803C85.2845 19.3913 85.5293 19.0297 85.8738 18.7764C86.2182 18.5232 86.6411 18.3937 87.0716 18.4098C87.2576 18.4091 87.4431 18.4289 87.6246 18.4687V19.9467C87.3897 19.8764 87.1448 19.8442 86.8994 19.8512C86.6649 19.8419 86.4312 19.8824 86.2142 19.9698C85.9972 20.0573 85.8022 20.1897 85.6424 20.358C85.4826 20.5262 85.3619 20.7264 85.2886 20.9446C85.2153 21.1628 85.1911 21.394 85.2176 21.6223V26.1881H83.6037L83.6037 18.4903Z" fill="white"/>
<path d="M95.0658 23.9273C94.8487 25.3247 93.4586 26.2837 91.6802 26.2837C89.3928 26.2837 87.9731 24.7833 87.9731 22.3763C87.9731 19.9617 89.4005 18.3958 91.6123 18.3958C93.7877 18.3958 95.1557 19.8588 95.1557 22.1928V22.7341H89.6023V22.8296C89.5767 23.1129 89.6129 23.3983 89.7086 23.6668C89.8043 23.9354 89.9572 24.1809 90.1573 24.3871C90.3573 24.5934 90.5999 24.7556 90.8689 24.8629C91.1379 24.9703 91.4272 25.0205 91.7175 25.01C92.0989 25.045 92.4816 24.9585 92.8088 24.7634C93.1359 24.5683 93.39 24.2751 93.5333 23.9273L95.0658 23.9273ZM89.6099 21.6298H93.5409C93.5554 21.3751 93.5159 21.1202 93.425 20.8811C93.3341 20.642 93.1937 20.4239 93.0126 20.2404C92.8315 20.057 92.6137 19.9121 92.3727 19.815C92.1317 19.7179 91.8728 19.6706 91.6123 19.6761C91.3495 19.6746 91.089 19.724 90.8458 19.8216C90.6025 19.9191 90.3815 20.0629 90.1953 20.2445C90.0092 20.4261 89.8616 20.6421 89.7611 20.8798C89.6606 21.1176 89.6093 21.3725 89.6099 21.6298V21.6298Z" fill="white"/>
<path d="M32.9203 7.68325C33.2586 7.65948 33.5982 7.70952 33.9144 7.82977C34.2306 7.95002 34.5156 8.13748 34.7489 8.37863C34.9821 8.61978 35.1578 8.90861 35.2632 9.22428C35.3687 9.53994 35.4012 9.87459 35.3586 10.2041C35.3586 11.8248 34.4638 12.7565 32.9203 12.7565H31.0485V7.68325H32.9203ZM31.8533 12.039H32.8304C33.0721 12.0532 33.3141 12.0144 33.5386 11.9254C33.7632 11.8365 33.9646 11.6996 34.1283 11.5248C34.292 11.3501 34.4138 11.1417 34.4849 10.9151C34.556 10.6884 34.5746 10.449 34.5393 10.2144C34.572 9.98073 34.5516 9.74286 34.4794 9.51783C34.4072 9.29281 34.2851 9.08619 34.1218 8.91281C33.9584 8.73942 33.758 8.60354 33.5347 8.51492C33.3114 8.42629 33.0709 8.38711 32.8304 8.40018H31.8533V12.039Z" fill="white"/>
<path d="M36.2678 10.8408C36.2432 10.5891 36.2726 10.3352 36.3541 10.0953C36.4356 9.85542 36.5674 9.63485 36.7411 9.44776C36.9148 9.26067 37.1265 9.11118 37.3627 9.00889C37.5989 8.9066 37.8543 8.85376 38.1125 8.85376C38.3707 8.85376 38.6261 8.9066 38.8623 9.00889C39.0984 9.11118 39.3102 9.26067 39.4838 9.44776C39.6575 9.63485 39.7894 9.85542 39.8709 10.0953C39.9524 10.3352 39.9818 10.5891 39.9572 10.8408C39.9823 11.0927 39.9532 11.347 39.8719 11.5873C39.7906 11.8276 39.6589 12.0486 39.4851 12.236C39.3114 12.4235 39.0995 12.5733 38.8631 12.6758C38.6267 12.7783 38.371 12.8313 38.1125 12.8313C37.8539 12.8313 37.5983 12.7783 37.3619 12.6758C37.1255 12.5733 36.9136 12.4235 36.7399 12.236C36.5661 12.0486 36.4344 11.8276 36.3531 11.5873C36.2718 11.347 36.2427 11.0927 36.2678 10.8408ZM39.1632 10.8408C39.1632 10.0107 38.7823 9.52522 38.1138 9.52522C37.4427 9.52522 37.0652 10.0107 37.0652 10.8408C37.0652 11.6776 37.4427 12.1593 38.1138 12.1593C38.7823 12.1593 39.1632 11.6743 39.1632 10.8408H39.1632Z" fill="white"/>
<path d="M44.8591 12.7558H44.0584L43.2502 9.93607H43.1891L42.3843 12.7558H41.5913L40.5134 8.92725H41.2962L41.9967 11.8487H42.0544L42.8584 8.92725H43.5988L44.4028 11.8487H44.4638L45.161 8.92725H45.9328L44.8591 12.7558Z" fill="white"/>
<path d="M46.8394 8.92755H47.5825V9.53592H47.6402C47.7381 9.31742 47.9031 9.13425 48.1124 9.01194C48.3216 8.88964 48.5646 8.83429 48.8075 8.85362C48.9979 8.83961 49.189 8.86771 49.3667 8.93583C49.5445 9.00395 49.7043 9.11035 49.8343 9.24714C49.9643 9.38394 50.0613 9.54762 50.1179 9.72607C50.1745 9.90452 50.1894 10.0932 50.1615 10.278V12.7572H49.3895V10.4678C49.3895 9.85237 49.1163 9.54631 48.5454 9.54631C48.4162 9.54041 48.2872 9.56195 48.1672 9.60943C48.0473 9.65691 47.9393 9.72922 47.8506 9.8214C47.7619 9.91358 47.6945 10.0234 47.6533 10.1435C47.612 10.2635 47.5977 10.3909 47.6114 10.5168V12.7572H46.8394L46.8394 8.92755Z" fill="white"/>
<path d="M51.3903 7.43311H52.1621V12.7562H51.3903V7.43311Z" fill="white"/>
<path d="M53.2349 10.8409C53.2104 10.5892 53.2398 10.3352 53.3213 10.0953C53.4029 9.85544 53.5347 9.63487 53.7084 9.44777C53.8822 9.26068 54.0939 9.11119 54.3301 9.00889C54.5662 8.9066 54.8216 8.85376 55.0799 8.85376C55.3382 8.85376 55.5936 8.9066 55.8297 9.00889C56.0659 9.11119 56.2776 9.26068 56.4513 9.44777C56.6251 9.63487 56.7569 9.85544 56.8384 10.0953C56.92 10.3352 56.9494 10.5892 56.9248 10.8409C56.9499 11.0928 56.9208 11.3471 56.8395 11.5874C56.7581 11.8277 56.6263 12.0486 56.4526 12.2361C56.2788 12.4235 56.067 12.5733 55.8305 12.6758C55.5941 12.7783 55.3385 12.8313 55.0799 12.8313C54.8213 12.8313 54.5656 12.7783 54.3292 12.6758C54.0928 12.5733 53.8809 12.4235 53.7072 12.2361C53.5334 12.0486 53.4017 11.8277 53.3203 11.5874C53.239 11.3471 53.2099 11.0928 53.2349 10.8409ZM56.1304 10.8409C56.1304 10.0107 55.7494 9.52529 55.081 9.52529C54.4099 9.52529 54.0324 10.0107 54.0324 10.8409C54.0324 11.6777 54.4099 12.1594 55.081 12.1594C55.7495 12.1594 56.1304 11.6743 56.1304 10.8409H56.1304Z" fill="white"/>
<path d="M57.7363 11.6743C57.7363 10.9849 58.2605 10.5875 59.1912 10.531L60.2508 10.4712V10.1407C60.2508 9.73621 59.9776 9.50781 59.4499 9.50781C59.019 9.50781 58.7203 9.66271 58.6347 9.93347H57.8873C57.9662 9.27568 58.5982 8.85376 59.4855 8.85376C60.4662 8.85376 61.0194 9.33173 61.0194 10.1407V12.7573H60.2762V12.2191H60.2151C60.0911 12.4122 59.9171 12.5696 59.7106 12.6752C59.5042 12.7808 59.2728 12.831 59.0402 12.8204C58.8759 12.8372 58.71 12.82 58.5529 12.7701C58.3959 12.7202 58.2513 12.6386 58.1285 12.5306C58.0056 12.4226 57.9072 12.2906 57.8397 12.1431C57.7721 11.9956 57.7369 11.8359 57.7363 11.6743ZM60.2508 11.3471V11.0269L59.2955 11.0867C58.7568 11.122 58.5125 11.3014 58.5125 11.639C58.5125 11.9837 58.8179 12.1842 59.2379 12.1842C59.3609 12.1964 59.4852 12.1843 59.6033 12.1485C59.7215 12.1127 59.8311 12.054 59.9256 11.9759C60.0201 11.8978 60.0976 11.8018 60.1534 11.6938C60.2093 11.5858 60.2424 11.4679 60.2508 11.3471Z" fill="white"/>
<path d="M62.0328 10.8403C62.0328 9.63054 62.668 8.86416 63.6561 8.86416C63.9005 8.85313 64.143 8.91044 64.3554 9.02939C64.5677 9.14833 64.7411 9.32399 64.8553 9.53585H64.913V7.43311H65.6847V12.7562H64.9452V12.1513H64.8841C64.7612 12.3618 64.5817 12.5352 64.3652 12.653C64.1488 12.7707 63.9035 12.8282 63.6561 12.8193C62.6612 12.8194 62.0328 12.053 62.0328 10.8403ZM62.83 10.8403C62.83 11.6523 63.221 12.141 63.8749 12.141C64.5254 12.141 64.9274 11.6453 64.9274 10.8436C64.9274 10.0457 64.5212 9.54294 63.8749 9.54294C63.2252 9.54294 62.83 10.0349 62.83 10.8403H62.83Z" fill="white"/>
<path d="M68.8779 10.8408C68.8533 10.5891 68.8827 10.3352 68.9642 10.0953C69.0457 9.85542 69.1775 9.63485 69.3512 9.44776C69.5249 9.26067 69.7366 9.11118 69.9728 9.00889C70.209 8.9066 70.4643 8.85376 70.7226 8.85376C70.9808 8.85376 71.2362 8.9066 71.4724 9.00889C71.7085 9.11118 71.9202 9.26067 72.0939 9.44776C72.2676 9.63485 72.3995 9.85542 72.481 10.0953C72.5625 10.3352 72.5919 10.5891 72.5673 10.8408C72.5924 11.0927 72.5633 11.347 72.482 11.5873C72.4007 11.8276 72.269 12.0486 72.0952 12.236C71.9215 12.4235 71.7096 12.5733 71.4732 12.6758C71.2368 12.7783 70.9811 12.8313 70.7226 12.8313C70.464 12.8313 70.2083 12.7783 69.972 12.6758C69.7356 12.5733 69.5237 12.4235 69.3499 12.236C69.1762 12.0486 69.0445 11.8276 68.9632 11.5873C68.8818 11.347 68.8528 11.0927 68.8779 10.8408ZM71.7733 10.8408C71.7733 10.0107 71.3923 9.52522 70.7239 9.52522C70.0528 9.52522 69.6753 10.0107 69.6753 10.8408C69.6753 11.6776 70.0528 12.1593 70.7239 12.1593C71.3924 12.1593 71.7733 11.6743 71.7733 10.8408Z" fill="white"/>
<path d="M73.6017 8.92755H74.3449V9.53592H74.4026C74.5005 9.31742 74.6655 9.13425 74.8748 9.01194C75.084 8.88964 75.327 8.83429 75.5699 8.85362C75.7603 8.83961 75.9514 8.86771 76.1291 8.93583C76.3069 9.00395 76.4667 9.11035 76.5967 9.24714C76.7267 9.38394 76.8237 9.54762 76.8803 9.72607C76.9369 9.90452 76.9518 10.0932 76.9239 10.278V12.7572H76.1519V10.4678C76.1519 9.85237 75.8787 9.54631 75.3078 9.54631C75.1786 9.54041 75.0496 9.56195 74.9296 9.60943C74.8097 9.65691 74.7017 9.72922 74.6129 9.8214C74.5242 9.91358 74.4569 10.0234 74.4156 10.1435C74.3743 10.2635 74.3601 10.3909 74.3737 10.5168V12.7572H73.6017V8.92755Z" fill="white"/>
<path d="M81.2839 7.97461V8.94524H82.1312V9.58168H81.2839V11.5503C81.2839 11.9514 81.4527 12.127 81.8369 12.127C81.9352 12.1267 82.0335 12.1209 82.1312 12.1096V12.7389C81.9926 12.7632 81.8522 12.7761 81.7114 12.7775C80.8531 12.7775 80.5113 12.4819 80.5113 11.7438V9.58164H79.8905V8.94521H80.5113V7.97461H81.2839Z" fill="white"/>
<path d="M83.1854 7.43311H83.9504V9.54293H84.0114C84.114 9.32245 84.2836 9.13829 84.4969 9.01556C84.7103 8.89283 84.9572 8.8375 85.2038 8.85709C85.3931 8.84701 85.5824 8.87795 85.758 8.9477C85.9337 9.01746 86.0915 9.12431 86.2201 9.26064C86.3488 9.39696 86.4451 9.5594 86.5022 9.73637C86.5593 9.91333 86.5759 10.1005 86.5506 10.2844V12.7562H85.7781V10.4708C85.7781 9.85927 85.4871 9.54956 84.9418 9.54956C84.8092 9.53891 84.6758 9.55676 84.5509 9.60187C84.426 9.64698 84.3128 9.71825 84.219 9.81071C84.1252 9.90316 84.0532 10.0146 84.0079 10.1371C83.9627 10.2597 83.9454 10.3904 83.9572 10.5202V12.7562H83.1854L83.1854 7.43311Z" fill="white"/>
<path d="M91.0516 11.7231C90.9468 12.0731 90.7195 12.3759 90.4096 12.5784C90.0998 12.781 89.727 12.8704 89.3566 12.8311C89.0989 12.8377 88.8428 12.7894 88.6061 12.6894C88.3694 12.5895 88.1577 12.4403 87.9858 12.2522C87.8138 12.0642 87.6858 11.8417 87.6105 11.6003C87.5352 11.3589 87.5144 11.1044 87.5497 10.8544C87.5153 10.6036 87.5365 10.3485 87.6116 10.1064C87.6867 9.86427 87.8141 9.64079 87.9851 9.45107C88.1562 9.26135 88.3668 9.10982 88.6028 9.00674C88.8389 8.90365 89.0948 8.85142 89.3532 8.85358C90.4417 8.85358 91.0983 9.58159 91.0983 10.7842V11.0479H88.3361V11.0903C88.324 11.2308 88.342 11.3723 88.389 11.5056C88.4361 11.6389 88.511 11.7611 88.6091 11.8644C88.7072 11.9677 88.8262 12.0498 88.9586 12.1054C89.091 12.161 89.2338 12.1889 89.3778 12.1874C89.5625 12.2091 89.7496 12.1765 89.9153 12.0939C90.081 12.0112 90.2179 11.8821 90.3085 11.7231L91.0516 11.7231ZM88.336 10.4889H90.3119C90.3216 10.3604 90.3037 10.2313 90.2595 10.1099C90.2152 9.98854 90.1455 9.87756 90.0548 9.78413C89.9641 9.6907 89.8545 9.61688 89.7329 9.5674C89.6114 9.51792 89.4806 9.49389 89.349 9.49684C89.2155 9.4952 89.083 9.51974 88.9593 9.56902C88.8356 9.6183 88.7232 9.69133 88.6288 9.78378C88.5344 9.87624 88.4599 9.98627 88.4096 10.1074C88.3593 10.2285 88.3343 10.3582 88.3361 10.4889H88.336Z" fill="white"/>
</g>
</svg>
