<svg width="119" height="35" viewBox="0 0 119 35" fill="none" xmlns="http://www.w3.org/2000/svg">
<g clip-path="url(#clip0)">
<path fill-rule="evenodd" clip-rule="evenodd" d="M113.805 34.2692H5.25047C2.85636 34.2692 0.906555 32.3524 0.906555 30.018V4.51073C0.906555 2.16779 2.85636 0.259521 5.25047 0.259521H113.805C116.197 0.259521 118.149 2.16779 118.149 4.51073V30.018C118.149 32.3524 116.197 34.2692 113.805 34.2692Z" fill="black"/>
<path fill-rule="evenodd" clip-rule="evenodd" d="M113.805 0.940138C115.813 0.940138 117.457 2.54521 117.457 4.51073V30.018C117.457 31.9835 115.824 33.5885 113.805 33.5885H5.25047C3.24243 33.5885 1.59891 31.9835 1.59891 30.018V4.51073C1.59891 2.54521 3.23165 0.940138 5.25047 0.940138H113.805ZM113.805 0.259521H5.25047C2.85636 0.259521 0.906555 2.17627 0.906555 4.51073V30.018C0.906555 32.3609 2.85636 34.2692 5.25047 34.2692H113.805C116.197 34.2692 118.149 32.3609 118.149 30.018V4.51073C118.149 2.17627 116.197 0.259521 113.805 0.259521Z" fill="#A6A6A6"/>
<path d="M62.6702 11.5097C61.8873 11.5097 61.2273 11.2404 60.7054 10.7103C60.1877 10.1951 59.8987 9.48477 59.9116 8.75963C59.9116 7.98572 60.1791 7.33055 60.7054 6.81107C61.2252 6.281 61.8852 6.01172 62.6681 6.01172C63.4424 6.01172 64.1024 6.281 64.633 6.81107C65.1593 7.34751 65.4267 8.00268 65.4267 8.75963C65.4181 9.53566 65.1506 10.1908 64.633 10.7082C64.1132 11.2425 63.4532 11.5097 62.6702 11.5097ZM39.3742 11.5097C38.6085 11.5097 37.9442 11.2446 37.4006 10.7209C36.8614 10.1993 36.5875 9.5399 36.5875 8.76175C36.5875 7.9836 36.8614 7.32419 37.4006 6.80259C37.9334 6.27888 38.5977 6.01384 39.3742 6.01384C39.7538 6.01384 40.1226 6.08805 40.4763 6.23859C40.8236 6.38489 41.1061 6.5842 41.3153 6.82803L41.3671 6.88952L40.7826 7.45352L40.7222 7.38355C40.3922 6.99766 39.95 6.80895 39.3655 6.80895C38.8436 6.80895 38.3885 6.9913 38.0132 7.35175C37.6357 7.71432 37.4438 8.18927 37.4438 8.76387C37.4438 9.33847 37.6357 9.81342 38.0132 10.176C38.3885 10.5364 38.8436 10.7188 39.3655 10.7188C39.922 10.7188 40.39 10.5364 40.7545 10.176C40.9702 9.96396 41.104 9.66712 41.1514 9.29183H39.2771V8.49883H41.9559L41.9667 8.57092C41.9861 8.7045 42.0055 8.84232 42.0055 8.96954C42.0055 9.70104 41.7812 10.2926 41.3369 10.7294C40.8322 11.2467 40.1722 11.5097 39.3742 11.5097ZM70.3486 11.3973H69.5225L66.9926 7.41748L67.0141 8.13414V11.3952H66.1881V6.12622H67.1306L67.1565 6.1665L69.5355 9.91519L69.5139 9.20065V6.12622H70.3486V11.3973ZM56.4628 11.3973H55.626V6.91921H54.1744V6.12622H57.9122V6.91921H56.4607V11.3973H56.4628ZM53.4929 11.3973H52.6582V6.12622H53.4929V11.3973ZM48.8017 11.3973H47.967V6.91921H46.5155V6.12622H50.2533V6.91921H48.8017V11.3973ZM45.9871 11.3888H42.7863V6.12622H45.9871V6.91921H43.6231V8.36525H45.7563V9.14976H43.6231V10.5958H45.9871V11.3888ZM61.3179 10.1654C61.691 10.5322 62.144 10.7167 62.6702 10.7167C63.2116 10.7167 63.6538 10.5364 64.0226 10.1654C64.3893 9.80494 64.5747 9.33211 64.5747 8.76175C64.5747 8.19139 64.3893 7.71644 64.0247 7.35811C63.6516 6.9913 63.1965 6.80683 62.6724 6.80683C62.131 6.80683 61.6889 6.98706 61.3222 7.35811C60.9556 7.71856 60.7701 8.19139 60.7701 8.76175C60.7701 9.33211 60.9534 9.80706 61.3179 10.1654Z" fill="white"/>
<path fill-rule="evenodd" clip-rule="evenodd" d="M59.834 18.7571C57.7958 18.7571 56.1436 20.2773 56.1436 22.3743C56.1436 24.4522 57.8066 25.9915 59.834 25.9915C61.8723 25.9915 63.5244 24.4607 63.5244 22.3743C63.5244 20.2773 61.8723 18.7571 59.834 18.7571ZM59.834 24.5582C58.7189 24.5582 57.7591 23.6507 57.7591 22.3658C57.7591 21.0618 58.7211 20.1734 59.834 20.1734C60.9491 20.1734 61.9089 21.0618 61.9089 22.3658C61.9111 23.6592 60.9491 24.5582 59.834 24.5582ZM51.7825 18.7571C49.7442 18.7571 48.0921 20.2773 48.0921 22.3743C48.0921 24.4522 49.755 25.9915 51.7825 25.9915C53.8207 25.9915 55.4729 24.4607 55.4729 22.3743C55.4729 20.2773 53.8185 18.7571 51.7825 18.7571ZM51.7825 24.5582C50.6674 24.5582 49.7076 23.6507 49.7076 22.3658C49.7076 21.0618 50.6695 20.1734 51.7825 20.1734C52.8976 20.1734 53.8574 21.0618 53.8574 22.3658C53.8574 23.6592 52.8976 24.5582 51.7825 24.5582ZM42.2017 19.8617V21.3926H45.9395C45.8252 22.2513 45.5362 22.8853 45.094 23.32C44.5462 23.8585 43.7007 24.4437 42.2103 24.4437C39.9133 24.4437 38.1166 22.6203 38.1166 20.3621C38.1166 18.104 39.9133 16.2805 42.2103 16.2805C43.4505 16.2805 44.3542 16.7619 45.025 17.3767L46.1293 16.2912C45.1976 15.4133 43.9574 14.7412 42.2189 14.7412C39.0678 14.7412 36.4235 17.2644 36.4235 20.3536C36.4235 23.4514 39.0656 25.9661 42.2189 25.9661C43.9207 25.9661 45.1976 25.4191 46.207 24.3886C47.2358 23.3772 47.5615 21.9502 47.5615 20.7989C47.5615 20.4406 47.5335 20.1183 47.4752 19.8448H42.1995C42.2017 19.8427 42.2017 19.8617 42.2017 19.8617ZM81.3897 21.0533C81.0813 20.2413 80.1495 18.7486 78.2385 18.7486C76.3448 18.7486 74.7703 20.2137 74.7703 22.3658C74.7703 24.3971 76.3276 25.983 78.4219 25.983C80.1042 25.983 81.0834 24.9717 81.4868 24.378L80.238 23.5553C79.8238 24.1596 79.248 24.5561 78.4305 24.5561C77.6044 24.5561 77.0264 24.1872 76.6425 23.4599L81.5623 21.4562C81.5623 21.4583 81.3897 21.0533 81.3897 21.0533ZM76.3729 22.2619C76.334 20.8646 77.4772 20.1543 78.2946 20.1543C78.9395 20.1543 79.4766 20.466 79.6599 20.9198L76.3729 22.2619ZM72.3762 25.7668H73.9917V15.1398H72.3762V25.7668ZM69.7233 19.5607H69.665C69.3005 19.1345 68.6082 18.7486 67.7238 18.7486C65.8883 18.7486 64.1974 20.3367 64.1974 22.3764C64.1974 24.4077 65.8797 25.9767 67.7238 25.9767C68.5974 25.9767 69.3005 25.5887 69.665 25.154H69.7233V25.6735C69.7233 27.0538 68.9727 27.798 67.7627 27.798C66.7727 27.798 66.158 27.0983 65.9078 26.5131L64.5036 27.0898C64.907 28.044 65.9833 29.225 67.7605 29.225C69.6542 29.225 71.2589 28.1288 71.2589 25.4551V18.9649H69.7319V19.5607C69.734 19.5607 69.7233 19.5607 69.7233 19.5607ZM67.8683 24.5582C66.7533 24.5582 65.8215 23.6422 65.8215 22.3764C65.8215 21.1 66.7533 20.1755 67.8683 20.1755C68.9727 20.1755 69.8289 21.1106 69.8289 22.3764C69.8397 23.6422 68.9748 24.5582 67.8683 24.5582ZM88.9538 15.1398H85.0909V25.7668H86.7064V21.7424H88.956C90.744 21.7424 92.5019 20.4681 92.5019 18.4454C92.5019 16.4226 90.7505 15.1398 88.9538 15.1398ZM89.0013 20.2582H86.7042V16.6113H89.0013C90.2113 16.6113 90.895 17.593 90.895 18.4348C90.895 19.2681 90.2027 20.2582 89.0013 20.2582ZM98.9768 18.738C97.8034 18.738 96.5934 19.249 96.093 20.3621L97.5252 20.9473C97.8336 20.3621 98.3987 20.1628 98.9962 20.1628C99.833 20.1628 100.679 20.6547 100.698 21.5325V21.6449C100.409 21.4838 99.7748 21.2378 99.0156 21.2378C97.4691 21.2378 95.9011 22.069 95.9011 23.6274C95.9011 25.0544 97.1693 25.9703 98.5821 25.9703C99.667 25.9703 100.264 25.489 100.638 24.9314H100.696V25.7541H102.253V21.6831C102.253 19.7875 100.821 18.738 98.9768 18.738ZM98.774 24.5582C98.2456 24.5582 97.5058 24.3038 97.5058 23.6507C97.5058 22.828 98.4289 22.5164 99.2162 22.5164C99.9279 22.5164 100.264 22.6669 100.687 22.8747C100.571 23.8288 99.7511 24.5497 98.774 24.5582ZM107.934 18.9649L106.079 23.5744H106.021L104.099 18.9649H102.361L105.245 25.4084L103.601 28.9896H105.283L109.72 18.9649H107.934ZM93.3927 25.7668H95.0081V15.1398H93.3927V25.7668Z" fill="white"/>
<path fill-rule="evenodd" clip-rule="evenodd" d="M9.93095 6.66443C9.68076 6.92946 9.53625 7.33444 9.53625 7.86452V26.6652C9.53625 27.1953 9.68076 27.6003 9.93958 27.8547L10.0064 27.912L20.7217 17.3783V17.143L9.99781 6.60718L9.93095 6.66443Z" fill="url(#paint0_linear)"/>
<path fill-rule="evenodd" clip-rule="evenodd" d="M24.2868 20.9006L20.7129 17.3872V17.1413L24.2868 13.6279L24.3645 13.6746L28.5919 16.0366C29.8019 16.7066 29.8019 17.8134 28.5919 18.4919L24.3645 20.8539L24.2868 20.9006Z" fill="url(#paint1_linear)"/>
<path fill-rule="evenodd" clip-rule="evenodd" d="M24.3646 20.8538L20.713 17.2642L9.93087 27.8635C10.3256 28.2791 10.9877 28.3258 11.7275 27.9208L24.3646 20.8538Z" fill="url(#paint2_linear)"/>
<path fill-rule="evenodd" clip-rule="evenodd" d="M24.3646 13.6746L11.7275 6.61827C10.9877 6.2027 10.3234 6.25994 9.93087 6.67552L20.713 17.2643L24.3646 13.6746Z" fill="url(#paint3_linear)"/>
<path opacity="0.2" fill-rule="evenodd" clip-rule="evenodd" d="M24.2869 20.7776L11.7361 27.7873C11.0351 28.1838 10.4096 28.1562 10.0062 27.7958L9.93938 27.8615L10.0062 27.9187C10.4096 28.2771 11.0351 28.3068 11.7361 27.9103L24.3732 20.8539L24.2869 20.7776Z" fill="black"/>
<path opacity="0.12" fill-rule="evenodd" clip-rule="evenodd" d="M28.592 18.3688L24.2762 20.7775L24.3538 20.8538L28.5813 18.4918C29.1873 18.1526 29.485 17.7073 29.485 17.2642C29.4483 17.6713 29.1399 18.0572 28.592 18.3688Z" fill="black"/>
<path opacity="0.25" fill-rule="evenodd" clip-rule="evenodd" d="M11.7276 6.74105L28.5921 16.1594C29.1399 16.4626 29.4484 16.8591 29.4958 17.2641C29.4958 16.821 29.1982 16.3757 28.5921 16.0365L11.7276 6.61807C10.5176 5.93745 9.53625 6.5057 9.53625 7.86481V7.98779C9.53625 6.62655 10.5176 6.06891 11.7276 6.74105Z" fill="white"/>
</g>
<defs>
<linearGradient id="paint0_linear" x1="19.7606" y1="7.66168" x2="2.63604" y2="12.3032" gradientUnits="userSpaceOnUse">
<stop stop-color="#00A0FF"/>
<stop offset="0.00657" stop-color="#00A1FF"/>
<stop offset="0.2601" stop-color="#00BEFF"/>
<stop offset="0.5122" stop-color="#00D2FF"/>
<stop offset="0.7604" stop-color="#00DFFF"/>
<stop offset="1" stop-color="#00E3FF"/>
</linearGradient>
<linearGradient id="paint1_linear" x1="30.1699" y1="17.2643" x2="9.24189" y2="17.2643" gradientUnits="userSpaceOnUse">
<stop stop-color="#FFE000"/>
<stop offset="0.4087" stop-color="#FFBD00"/>
<stop offset="0.7754" stop-color="#FFA500"/>
<stop offset="1" stop-color="#FF9C00"/>
</linearGradient>
<linearGradient id="paint2_linear" x1="22.379" y1="19.2175" x2="8.94513" y2="42.2176" gradientUnits="userSpaceOnUse">
<stop stop-color="#FF3A44"/>
<stop offset="1" stop-color="#C31162"/>
</linearGradient>
<linearGradient id="paint3_linear" x1="7.21581" y1="0.411507" x2="13.2091" y2="10.6836" gradientUnits="userSpaceOnUse">
<stop stop-color="#32A071"/>
<stop offset="0.0685" stop-color="#2DA771"/>
<stop offset="0.4762" stop-color="#15CF74"/>
<stop offset="0.8009" stop-color="#06E775"/>
<stop offset="1" stop-color="#00F076"/>
</linearGradient>
<clipPath id="clip0">
<rect width="117.243" height="34.0096" fill="white" transform="translate(0.906555 0.259521)"/>
</clipPath>
</defs>
</svg>
