<svg width="99" height="168" viewBox="0 0 99 168" fill="none" xmlns="http://www.w3.org/2000/svg">
<path d="M34.5202 94.0692H77.4711C77.8585 94.0692 78.2375 94.1918 78.5622 94.422C78.8868 94.6523 79.1431 94.9803 79.2998 95.3662C79.4565 95.7521 79.507 96.1793 79.445 96.5959C79.383 97.0124 79.2113 97.4004 78.9507 97.7127L62.5147 117.407C62.1801 117.807 61.9947 118.33 61.9947 118.872V134.29C61.9947 134.648 61.9134 135.001 61.758 135.317C61.6027 135.634 61.3781 135.903 61.1042 136.102L53.1055 141.911C52.8043 142.129 52.4543 142.255 52.0928 142.274C51.7313 142.293 51.3718 142.205 51.0527 142.019C50.7336 141.833 50.4668 141.556 50.2808 141.218C50.0948 140.879 49.9966 140.492 49.9966 140.098V118.872C49.9966 118.33 49.8112 117.807 49.4766 117.407L33.0405 97.7127C32.78 97.4004 32.6082 97.0124 32.5463 96.5959C32.4843 96.1793 32.5347 95.7521 32.6915 95.3662C32.8482 94.9803 33.1044 94.6523 33.4291 94.422C33.7537 94.1918 34.1328 94.0692 34.5202 94.0692V94.0692Z" stroke="#7ED957" stroke-width="1.59974" stroke-linecap="round" stroke-linejoin="round"/>
<rect width="48.678" height="13.8496" rx="3.19948" transform="matrix(0.77887 0.627198 -0.605062 0.796188 8.39111 45.0464)" fill="#E4DCD0"/>
<path d="M15.5268 60.5386L14.3003 61.37L14.2031 61.2918C14.1832 61.2757 14.1711 61.2564 14.1668 61.2338C14.1626 61.2112 14.1688 61.1889 14.1856 61.1668C14.1946 61.1549 14.2075 61.1434 14.2241 61.1321L15.3324 60.3821L14.5848 59.7801L13.4687 60.5403C13.4299 60.5666 13.3931 60.578 13.3583 60.5746C13.325 60.5725 13.2951 60.5607 13.2686 60.5393L13.1664 60.4571L14.3929 59.6256L13.9368 59.2584C13.8936 59.2236 13.8875 59.1858 13.9185 59.1451C13.9237 59.1383 13.9282 59.1324 13.9321 59.1273C13.9389 59.1218 13.9464 59.1155 13.9545 59.1083L14.0281 59.0485L14.5738 59.488L15.6548 58.7528L15.0243 58.2452L15.1209 58.171C15.1725 58.1277 15.2324 58.1335 15.3005 58.1883L15.8338 58.6177L16.9613 57.8584C16.9957 57.8342 17.0296 57.8231 17.0628 57.8252C17.099 57.827 17.1312 57.8392 17.1594 57.862L17.2591 57.9422L16.0282 58.7742L16.7733 59.3742L18.0068 58.5442L18.1089 58.6265C18.1289 58.6425 18.1401 58.6612 18.1427 58.6824C18.1483 58.7033 18.1433 58.7239 18.1278 58.7443C18.1188 58.7562 18.106 58.7678 18.0894 58.7791L16.9677 59.5307L17.5309 59.9842L17.4313 60.0518C17.4024 60.0723 17.3736 60.082 17.345 60.0808C17.318 60.0811 17.288 60.0678 17.2547 60.041L16.7887 59.6658L15.7077 60.4009L16.271 60.8544C16.3175 60.8919 16.324 60.9327 16.2904 60.9768C16.2865 60.9819 16.282 60.9879 16.2768 60.9947C16.273 60.9997 16.2668 61.0044 16.2583 61.0085L16.1797 61.0643L15.5268 60.5386ZM14.7657 59.6425L15.5134 60.2444L16.5968 59.5113L15.8492 58.9093L14.7657 59.6425ZM15.9804 62.7228L18.2116 60.4214L18.3188 60.5077C18.3769 60.5545 18.3828 60.6085 18.3363 60.6696L17.691 61.3654C18.0143 61.1795 18.3051 61.0701 18.5632 61.037C18.8243 61.0036 19.037 61.0531 19.2015 61.1856C19.2696 61.2404 19.3284 61.311 19.3779 61.3974L19.1633 61.59C19.1088 61.4996 19.0483 61.4276 18.9819 61.3741C18.8041 61.231 18.5753 61.1919 18.2957 61.2569C18.0189 61.3215 17.7014 61.482 17.3432 61.7383L16.2121 62.9094L15.9804 62.7228ZM18.5646 64.5489C18.7092 64.6653 18.8695 64.7328 19.0455 64.7513C19.2245 64.7695 19.4048 64.749 19.5863 64.6899C19.7691 64.6291 19.9456 64.5343 20.1156 64.4057C20.2886 64.2768 20.4416 64.1248 20.5746 63.9499C20.7811 63.6782 20.8815 63.421 20.8758 63.1783C20.8702 62.9356 20.7626 62.7299 20.5533 62.5614C20.4569 62.4838 20.3528 62.4287 20.241 62.3962C20.1305 62.3619 20.0156 62.3474 19.8964 62.3527C19.7772 62.3581 19.6556 62.3806 19.5316 62.4204C19.4106 62.4598 19.2914 62.5144 19.1741 62.5842C19.0585 62.6553 18.9466 62.7391 18.8385 62.8355C18.7321 62.9332 18.6337 63.0415 18.5434 63.1604C18.3382 63.4304 18.2369 63.6869 18.2396 63.93C18.2453 64.1727 18.3536 64.379 18.5646 64.5489ZM18.3995 64.7239C18.2666 64.6169 18.1634 64.4955 18.0899 64.3596C18.018 64.2251 17.9772 64.0814 17.9676 63.9286C17.9595 63.777 17.9823 63.6202 18.0359 63.458C18.0925 63.2955 18.1827 63.1328 18.3066 62.9698C18.4628 62.7643 18.6424 62.5914 18.8455 62.451C19.0499 62.309 19.2609 62.2093 19.4786 62.1519C19.698 62.0958 19.9147 62.0855 20.1288 62.121C20.3441 62.1548 20.5415 62.2439 20.7209 62.3884C20.8539 62.4954 20.9556 62.617 21.0262 62.7532C21.0997 62.8891 21.1404 63.0327 21.1484 63.1843C21.1594 63.3355 21.1366 63.4923 21.0801 63.6548C21.0252 63.8186 20.9371 63.9804 20.8157 64.14C20.6596 64.3455 20.4791 64.5177 20.2744 64.6567C20.0713 64.7971 19.8602 64.8968 19.6413 64.9559C19.4236 65.0133 19.207 65.0251 18.9917 64.9913C18.7763 64.9575 18.5789 64.8684 18.3995 64.7239ZM20.6253 65.7769C20.633 65.7667 20.6427 65.754 20.6543 65.7387C20.6676 65.7247 20.6867 65.7031 20.7115 65.6739C20.7381 65.646 20.7719 65.6103 20.8131 65.5668C20.8571 65.5229 20.9117 65.4669 20.9768 65.3989L22.2402 64.0961L21.9137 63.8333C21.8805 63.8065 21.8761 63.777 21.9006 63.7447L21.9925 63.6503L22.407 63.9348L23.2607 63.1604C23.2756 63.1478 23.2934 63.1402 23.3141 63.1377C23.3348 63.1352 23.3534 63.1406 23.37 63.154L23.4846 63.2463L22.6318 64.1199L23.3495 64.6978L23.1921 64.8626L22.4744 64.2847L21.2144 65.5779C21.1532 65.6408 21.1033 65.6923 21.0648 65.7325C21.0262 65.7726 20.9943 65.8058 20.969 65.832C20.9451 65.8565 20.9271 65.8748 20.9151 65.8871C20.9048 65.9007 20.897 65.9109 20.8919 65.9176C20.808 66.028 20.7722 66.1279 20.7846 66.2173C20.7987 66.308 20.8456 66.3855 20.9254 66.4497C20.9802 66.4938 21.0348 66.5241 21.0893 66.5406C21.1467 66.5567 21.1989 66.5672 21.2459 66.5723C21.2943 66.5756 21.3349 66.5768 21.3677 66.5759C21.4019 66.5733 21.4239 66.576 21.4339 66.584C21.4439 66.592 21.4494 66.6006 21.4505 66.6097C21.4529 66.6171 21.4534 66.6271 21.4519 66.6396L21.4155 66.7827C21.2948 66.8005 21.1703 66.7933 21.0421 66.7613C20.9151 66.7275 20.8043 66.6724 20.7096 66.5962C20.5733 66.4865 20.4952 66.362 20.4752 66.2227C20.4569 66.0848 20.5069 65.9362 20.6253 65.7769ZM23.6867 64.842L23.8537 64.9764C23.8952 65.0099 23.9046 65.0503 23.882 65.0978L22.6961 67.3662C22.6744 67.4089 22.6499 67.4481 22.6228 67.4838C22.5987 67.5191 22.5737 67.5537 22.5479 67.5877C22.587 67.5644 22.6261 67.5412 22.6652 67.5179C22.7056 67.4929 22.7475 67.4678 22.7908 67.4425L25.1765 66.1113C25.2181 66.0846 25.2573 66.086 25.2938 66.1154L25.3835 66.1877C25.4201 66.2171 25.4267 66.2525 25.4032 66.2939L24.2362 68.6063C24.2149 68.652 24.1914 68.6934 24.166 68.7304C24.1422 68.7687 24.1184 68.8071 24.0947 68.8454C24.1317 68.8178 24.1696 68.7908 24.2084 68.7645C24.2471 68.7382 24.2896 68.7122 24.3359 68.6865L26.6681 67.3411C26.6906 67.3291 26.7124 67.3233 26.7335 67.3238C26.7574 67.324 26.7786 67.3314 26.7968 67.3461L26.9613 67.4786L23.9733 69.1583L23.8039 69.0219C23.7789 69.0018 23.7767 68.9713 23.7972 68.9303L24.9802 66.5651C25.0042 66.5159 25.0297 66.4735 25.0568 66.4379C25.0168 66.4659 24.9721 66.4929 24.9229 66.5189L22.4813 67.8708C22.4409 67.8958 22.4074 67.8975 22.3809 67.8761L22.2164 67.7437L23.6867 64.842ZM28.6302 69.6025C28.5773 69.6721 28.5178 69.731 28.4518 69.7791C28.3858 69.8272 28.3082 69.8605 28.2191 69.8791C28.13 69.8977 28.0262 69.9004 27.9077 69.8871C27.7905 69.8722 27.6535 69.8357 27.4966 69.7779C27.3411 69.7183 27.164 69.6359 26.9654 69.5308C26.7681 69.4239 26.5434 69.2896 26.2915 69.1278C26.261 69.1608 26.2314 69.1944 26.2027 69.2287C26.1752 69.2614 26.1486 69.2947 26.1227 69.3286C25.9304 69.5817 25.8357 69.8243 25.8386 70.0566C25.8432 70.2902 25.9584 70.498 26.1844 70.6799C26.2724 70.7508 26.3584 70.805 26.4424 70.8425C26.5294 70.8796 26.6118 70.905 26.6899 70.9186C26.7696 70.9335 26.8432 70.9407 26.9105 70.9402C26.9795 70.941 27.0423 70.9395 27.0987 70.9357C27.1552 70.9318 27.2021 70.93 27.2396 70.93C27.28 70.9297 27.3102 70.9376 27.3301 70.9536C27.3501 70.9697 27.361 70.9922 27.3631 71.0212L27.3676 71.1316C27.2191 71.1544 27.0812 71.1666 26.9541 71.1682C26.8299 71.1695 26.7125 71.1584 26.6017 71.135C26.4927 71.1129 26.3887 71.0771 26.2897 71.0275C26.1895 70.9797 26.0912 70.9169 25.9949 70.8394C25.857 70.7283 25.7515 70.6064 25.6783 70.4736C25.6081 70.3405 25.5687 70.202 25.5602 70.0582C25.5529 69.9128 25.5766 69.7635 25.6313 69.6105C25.6873 69.4557 25.7734 69.302 25.8896 69.1491C25.9864 69.0218 26.0963 68.9036 26.2193 68.7946C26.3423 68.6856 26.4731 68.5911 26.6116 68.511C26.7518 68.4322 26.897 68.3698 27.0472 68.3238C27.199 68.279 27.3505 68.2559 27.5016 68.2544C27.6527 68.2529 27.8016 68.2755 27.9481 68.3224C28.0946 68.3692 28.2335 68.4454 28.3648 68.5511C28.4861 68.6487 28.5747 68.7488 28.6307 68.8514C28.6896 68.9536 28.7248 69.0517 28.7363 69.1458C28.7507 69.2396 28.7463 69.3264 28.7231 69.4063C28.7012 69.4844 28.6702 69.5498 28.6302 69.6025ZM28.2168 68.7194C28.0839 68.6124 27.9415 68.5442 27.7896 68.515C27.6394 68.4872 27.486 68.4882 27.3293 68.5181C27.1756 68.5476 27.0222 68.6033 26.8689 68.6852C26.7185 68.7667 26.5778 68.8656 26.4467 68.9817C26.6757 69.1278 26.8783 69.2472 27.0544 69.3397C27.2318 69.4305 27.3865 69.5017 27.5187 69.5533C27.6521 69.6033 27.7667 69.634 27.8625 69.6454C27.9599 69.6581 28.043 69.658 28.1118 69.645C28.182 69.6302 28.2403 69.6046 28.2867 69.5682C28.3349 69.533 28.3777 69.4908 28.4151 69.4416C28.4422 69.4059 28.4629 69.361 28.4773 69.3069C28.4946 69.2524 28.4979 69.1934 28.4872 69.13C28.4764 69.0666 28.4495 68.9998 28.4065 68.9296C28.3664 68.859 28.3032 68.7889 28.2168 68.7194ZM30.0112 69.9342L27.7833 72.2259L27.5515 72.0393L29.7794 69.7476L30.0112 69.9342ZM30.8572 69.207C30.834 69.2375 30.8062 69.2617 30.7739 69.2795C30.7429 69.2956 30.7097 69.3059 30.6743 69.3102C30.6389 69.3145 30.6034 69.3119 30.5677 69.3024C30.5338 69.2942 30.5035 69.2794 30.4769 69.258C30.4487 69.2353 30.4266 69.2079 30.4107 69.176C30.3948 69.144 30.3847 69.1098 30.3802 69.0734C30.3774 69.0383 30.3799 69.0034 30.3876 68.9685C30.3967 68.932 30.4128 68.8984 30.436 68.8679C30.4593 68.8373 30.487 68.8131 30.5193 68.7953C30.5516 68.7775 30.5846 68.7658 30.6184 68.7601C30.6551 68.7541 30.6904 68.7552 30.7244 68.7633C30.7583 68.7715 30.7894 68.787 30.8177 68.8097C30.8443 68.8311 30.8655 68.8578 30.8814 68.8897C30.8989 68.923 30.9099 68.9579 30.9144 68.9943C30.9188 69.0308 30.9159 69.0681 30.9056 69.1063C30.8966 69.1429 30.8804 69.1764 30.8572 69.207ZM28.6607 72.9324L30.8919 70.631L30.9991 70.7173C31.0556 70.7628 31.0606 70.8161 31.0141 70.8772L30.3843 71.5526C30.5544 71.4733 30.7201 71.4138 30.8816 71.3741C31.0459 71.334 31.2016 71.3142 31.3484 71.3147C31.4966 71.3136 31.6331 71.3331 31.7578 71.3734C31.8839 71.4119 31.9959 71.4706 32.0939 71.5495C32.2784 71.698 32.37 71.8717 32.3688 72.0706C32.3676 72.2695 32.2792 72.4844 32.1037 72.7153C32.0921 72.7306 32.0777 72.7478 32.0606 72.7668C32.0464 72.7855 32.0206 72.8141 31.9834 72.8525C31.9478 72.8923 31.8962 72.9479 31.8285 73.0193C31.7621 73.089 31.6711 73.1841 31.5555 73.3045C31.4411 73.4232 31.2968 73.5726 31.1226 73.7525C30.9512 73.9321 30.7412 74.1504 30.4924 74.4072L30.2581 74.2186L31.6764 72.749C31.7457 72.6789 31.8069 72.6091 31.8598 72.5394C31.9901 72.3679 32.0571 72.2111 32.0607 72.0689C32.066 71.9281 31.9997 71.8021 31.8618 71.6911C31.7688 71.6162 31.6562 71.5653 31.524 71.5383C31.3932 71.5096 31.2487 71.5041 31.0906 71.5219C30.9354 71.5393 30.7704 71.5802 30.5955 71.6447C30.4219 71.7075 30.2452 71.7938 30.0653 71.9036L28.895 73.121L28.6607 72.9324Z" fill="black"/>
<rect x="30" y="151" width="48.0769" height="16.075" rx="3.19948" fill="#E4DCD0"/>
<path d="M38.4971 160.076L38.0236 161.494H37.8988C37.8732 161.494 37.8518 161.486 37.8348 161.471C37.8177 161.456 37.8092 161.435 37.8092 161.407C37.8092 161.392 37.8124 161.375 37.8188 161.356L38.2475 160.076H37.2877L36.8589 161.369C36.844 161.414 36.8216 161.446 36.7918 161.465C36.764 161.484 36.7331 161.494 36.699 161.494H36.5678L37.0413 160.076H36.4558C36.4003 160.076 36.3726 160.051 36.3726 159.999C36.3726 159.991 36.3726 159.983 36.3726 159.977C36.3748 159.969 36.3769 159.959 36.379 159.948L36.4014 159.856H37.1021L37.518 158.605H36.7086L36.7406 158.486C36.7555 158.42 36.8067 158.387 36.8941 158.387H37.5788L38.0172 157.088C38.03 157.047 38.0502 157.018 38.0779 156.998C38.1078 156.977 38.1409 156.966 38.1771 156.966H38.3051L37.8284 158.387H38.785L39.265 156.966H39.3961C39.4217 156.966 39.442 156.974 39.4569 156.989C39.474 157.002 39.4825 157.021 39.4825 157.046C39.4825 157.061 39.4793 157.078 39.4729 157.098L39.0346 158.387H39.7577L39.7193 158.502C39.7086 158.536 39.6915 158.562 39.6681 158.579C39.6468 158.596 39.6148 158.605 39.5721 158.605H38.9738L38.5579 159.856H39.2809C39.3407 159.856 39.3705 159.883 39.3705 159.939C39.3705 159.945 39.3705 159.953 39.3705 159.961C39.3705 159.967 39.3684 159.975 39.3641 159.983L39.3353 160.076H38.4971ZM37.3485 159.856H38.3083L38.7274 158.605H37.7676L37.3485 159.856ZM42.4297 160.911C42.3167 161.037 42.209 161.141 42.1066 161.222C42.0063 161.303 41.9072 161.367 41.809 161.414C41.7131 161.461 41.6149 161.493 41.5147 161.51C41.4144 161.527 41.3078 161.535 41.1947 161.535C41.0113 161.535 40.8513 161.504 40.7148 161.442C40.5804 161.378 40.4685 161.29 40.3789 161.177C40.2893 161.064 40.2221 160.929 40.1773 160.774C40.1325 160.618 40.1101 160.448 40.1101 160.265C40.1101 160.097 40.1272 159.93 40.1613 159.766C40.1976 159.6 40.2488 159.442 40.3149 159.292C40.381 159.143 40.461 159.006 40.5548 158.88C40.6487 158.754 40.7543 158.645 40.8716 158.553C40.9889 158.462 41.1158 158.39 41.2523 158.339C41.391 158.286 41.5382 158.259 41.6939 158.259C41.7984 158.259 41.8922 158.27 41.9754 158.291C42.0607 158.31 42.1386 158.339 42.209 158.377C42.2794 158.414 42.3434 158.458 42.4009 158.512C42.4585 158.565 42.5119 158.625 42.5609 158.691L42.4713 158.796C42.4521 158.82 42.4297 158.832 42.4041 158.832C42.3828 158.832 42.3562 158.815 42.3242 158.78C42.2943 158.746 42.2527 158.71 42.1994 158.672C42.1482 158.631 42.081 158.594 41.9978 158.56C41.9146 158.526 41.8101 158.509 41.6843 158.509C41.5051 158.509 41.3377 158.557 41.1819 158.653C41.0284 158.748 40.894 158.878 40.7788 159.04C40.6658 159.202 40.5762 159.389 40.5101 159.603C40.4461 159.814 40.4141 160.035 40.4141 160.265C40.4141 160.412 40.4301 160.549 40.4621 160.675C40.4962 160.8 40.5474 160.909 40.6156 161.001C40.686 161.093 40.7735 161.164 40.878 161.215C40.9825 161.266 41.1062 161.292 41.2491 161.292C41.3622 161.292 41.4635 161.28 41.5531 161.257C41.6427 161.231 41.7216 161.2 41.7898 161.164C41.8602 161.128 41.921 161.088 41.9722 161.046C42.0255 161.001 42.0725 160.96 42.113 160.924C42.1535 160.888 42.1876 160.858 42.2154 160.835C42.2452 160.809 42.2719 160.796 42.2954 160.796C42.3188 160.796 42.3412 160.807 42.3626 160.828L42.4297 160.911ZM43.0131 161.494L43.5762 156.838H43.877L43.5826 159.27C43.6679 159.11 43.7618 158.968 43.8642 158.844C43.9687 158.719 44.0775 158.613 44.1905 158.528C44.3057 158.44 44.423 158.374 44.5424 158.329C44.6619 158.285 44.7824 158.262 44.904 158.262C45.1429 158.262 45.321 158.339 45.4383 158.493C45.5578 158.646 45.6175 158.867 45.6175 159.155C45.6175 159.172 45.6164 159.192 45.6143 159.216C45.6143 159.237 45.6111 159.274 45.6047 159.328C45.6004 159.381 45.5929 159.458 45.5823 159.558C45.5716 159.656 45.5567 159.789 45.5375 159.958C45.5183 160.124 45.4938 160.333 45.4639 160.585C45.4362 160.835 45.401 161.137 45.3583 161.494H45.0576L45.2975 159.459C45.3103 159.361 45.3167 159.268 45.3167 159.18C45.3167 158.963 45.2751 158.798 45.1919 158.685C45.1109 158.571 44.9818 158.515 44.8048 158.515C44.6896 158.515 44.5723 158.545 44.4529 158.605C44.3334 158.662 44.2172 158.746 44.1041 158.857C43.9932 158.966 43.8876 159.098 43.7874 159.254C43.6871 159.41 43.5986 159.584 43.5218 159.776L43.3138 161.494H43.0131ZM48.482 161.494H48.3348C48.2943 161.494 48.2655 161.484 48.2484 161.465C48.2335 161.446 48.226 161.422 48.226 161.394L48.3316 160.393C48.2505 160.564 48.1609 160.719 48.0628 160.86C47.9668 160.999 47.8634 161.118 47.7525 161.218C47.6437 161.319 47.5285 161.397 47.4069 161.452C47.2854 161.508 47.1595 161.535 47.0294 161.535C46.895 161.535 46.7777 161.51 46.6775 161.458C46.5772 161.405 46.493 161.33 46.4247 161.234C46.3586 161.139 46.3084 161.022 46.2743 160.886C46.2402 160.749 46.2231 160.596 46.2231 160.425C46.2231 160.239 46.2466 160.058 46.2935 159.881C46.3404 159.702 46.4066 159.532 46.4919 159.372C46.5793 159.212 46.6828 159.065 46.8022 158.931C46.9217 158.796 47.0529 158.68 47.1958 158.582C47.3408 158.484 47.4955 158.407 47.6597 158.352C47.8239 158.296 47.9935 158.269 48.1684 158.269C48.2964 158.269 48.4158 158.28 48.5268 158.304C48.6377 158.325 48.7475 158.363 48.8563 158.419L48.482 161.494ZM47.1286 161.282C47.2502 161.282 47.3696 161.248 47.4869 161.18C47.6064 161.112 47.7194 161.016 47.8261 160.892C47.9327 160.766 48.033 160.616 48.1268 160.441C48.2228 160.264 48.3081 160.069 48.3828 159.856L48.5428 158.56C48.4169 158.517 48.2804 158.496 48.1332 158.496C47.9903 158.496 47.8517 158.52 47.7173 158.569C47.5829 158.616 47.456 158.682 47.3365 158.768C47.2192 158.853 47.1105 158.954 47.0102 159.072C46.9121 159.189 46.8268 159.318 46.7542 159.459C46.6817 159.597 46.6252 159.745 46.5847 159.9C46.5463 160.056 46.5271 160.215 46.5271 160.377C46.5271 160.663 46.5751 160.886 46.6711 161.046C46.7692 161.204 46.9217 161.282 47.1286 161.282ZM49.5201 161.494L49.904 158.301H50.0416C50.1163 158.301 50.1536 158.339 50.1536 158.416L50.064 159.305C50.2304 158.975 50.4224 158.719 50.6399 158.537C50.8575 158.354 51.0868 158.262 51.3278 158.262C51.5411 158.262 51.6925 158.329 51.7821 158.464C51.8738 158.598 51.9197 158.791 51.9197 159.043C51.9197 159.115 51.9165 159.193 51.9101 159.276C51.9933 159.106 52.0839 158.958 52.1821 158.832C52.2823 158.704 52.3868 158.598 52.4956 158.515C52.6065 158.43 52.7196 158.367 52.8348 158.326C52.9499 158.284 53.0641 158.262 53.1771 158.262C53.4053 158.262 53.5696 158.335 53.6698 158.48C53.7701 158.623 53.8202 158.827 53.8202 159.094C53.8202 159.115 53.8191 159.14 53.817 159.168C53.817 159.193 53.8138 159.235 53.8074 159.292C53.8031 159.35 53.7957 159.43 53.785 159.532C53.7743 159.633 53.7594 159.768 53.7402 159.939C53.721 160.109 53.6965 160.322 53.6666 160.575C53.6368 160.827 53.6005 161.133 53.5578 161.494H53.2603L53.5003 159.459C53.5088 159.393 53.5152 159.331 53.5195 159.273C53.5237 159.213 53.5258 159.157 53.5258 159.104C53.5258 158.912 53.4928 158.767 53.4267 158.669C53.3605 158.568 53.2454 158.518 53.0811 158.518C52.9766 158.518 52.87 158.543 52.7612 158.592C52.6545 158.639 52.5489 158.71 52.4444 158.806C52.342 158.902 52.2439 159.023 52.1501 159.168C52.0584 159.313 51.9752 159.483 51.9005 159.68L51.6861 161.494H51.3886L51.6286 159.459C51.6478 159.312 51.6574 159.18 51.6574 159.065C51.6574 158.886 51.6264 158.751 51.5646 158.659C51.5027 158.565 51.3929 158.518 51.235 158.518C50.9919 158.518 50.7668 158.629 50.5599 158.851C50.3552 159.073 50.1749 159.386 50.0192 159.792L49.8176 161.494H49.5201ZM54.3922 162.62L54.9169 158.301H55.0545C55.1292 158.301 55.1665 158.339 55.1665 158.416L55.0641 159.417C55.1473 159.244 55.2401 159.088 55.3425 158.947C55.447 158.804 55.5568 158.682 55.672 158.582C55.7893 158.48 55.9109 158.401 56.0367 158.345C56.1626 158.29 56.2906 158.262 56.4207 158.262C56.5593 158.262 56.6809 158.289 56.7854 158.342C56.8899 158.395 56.9774 158.471 57.0478 158.569C57.1182 158.665 57.1715 158.783 57.2078 158.921C57.244 159.06 57.2621 159.215 57.2621 159.385C57.2621 159.549 57.2451 159.717 57.211 159.888C57.1768 160.056 57.1278 160.22 57.0638 160.38C57.0019 160.538 56.9251 160.687 56.8334 160.828C56.7438 160.969 56.6414 161.092 56.5263 161.196C56.4111 161.301 56.2842 161.384 56.1455 161.446C56.009 161.505 55.864 161.535 55.7104 161.535C55.5376 161.535 55.3777 161.497 55.2305 161.42C55.0854 161.343 54.967 161.23 54.8753 161.081L54.6866 162.62H54.3922ZM56.3215 158.509C56.1999 158.509 56.0773 158.543 55.9536 158.611C55.832 158.677 55.7147 158.772 55.6016 158.896C55.4886 159.019 55.3819 159.169 55.2817 159.344C55.1814 159.516 55.0929 159.709 55.0161 159.923L54.9041 160.838C54.998 161.006 55.1132 161.125 55.2497 161.193C55.3862 161.261 55.528 161.295 55.6752 161.295C55.8096 161.295 55.9344 161.269 56.0495 161.215C56.1669 161.16 56.2724 161.085 56.3663 160.991C56.4623 160.897 56.5465 160.789 56.619 160.665C56.6937 160.539 56.7556 160.407 56.8046 160.268C56.8558 160.13 56.8942 159.988 56.9198 159.843C56.9475 159.696 56.9614 159.553 56.9614 159.414C56.9614 159.128 56.907 158.906 56.7982 158.748C56.6894 158.589 56.5305 158.509 56.3215 158.509ZM59.965 161.494H59.8178C59.7773 161.494 59.7485 161.484 59.7314 161.465C59.7165 161.446 59.709 161.422 59.709 161.394L59.8146 160.393C59.7335 160.564 59.6439 160.719 59.5458 160.86C59.4498 160.999 59.3464 161.118 59.2355 161.218C59.1267 161.319 59.0115 161.397 58.8899 161.452C58.7684 161.508 58.6425 161.535 58.5124 161.535C58.378 161.535 58.2607 161.51 58.1605 161.458C58.0602 161.405 57.9759 161.33 57.9077 161.234C57.8416 161.139 57.7914 161.022 57.7573 160.886C57.7232 160.749 57.7061 160.596 57.7061 160.425C57.7061 160.239 57.7296 160.058 57.7765 159.881C57.8234 159.702 57.8896 159.532 57.9749 159.372C58.0623 159.212 58.1658 159.065 58.2852 158.931C58.4047 158.796 58.5359 158.68 58.6788 158.582C58.8238 158.484 58.9785 158.407 59.1427 158.352C59.3069 158.296 59.4765 158.269 59.6514 158.269C59.7794 158.269 59.8988 158.28 60.0098 158.304C60.1207 158.325 60.2305 158.363 60.3393 158.419L59.965 161.494ZM58.6116 161.282C58.7332 161.282 58.8526 161.248 58.9699 161.18C59.0894 161.112 59.2024 161.016 59.3091 160.892C59.4157 160.766 59.516 160.616 59.6098 160.441C59.7058 160.264 59.7911 160.069 59.8658 159.856L60.0258 158.56C59.8999 158.517 59.7634 158.496 59.6162 158.496C59.4733 158.496 59.3347 158.52 59.2003 158.569C59.0659 158.616 58.939 158.682 58.8195 158.768C58.7022 158.853 58.5934 158.954 58.4932 159.072C58.3951 159.189 58.3098 159.318 58.2372 159.459C58.1647 159.597 58.1082 159.745 58.0677 159.9C58.0293 160.056 58.0101 160.215 58.0101 160.377C58.0101 160.663 58.0581 160.886 58.1541 161.046C58.2522 161.204 58.4047 161.282 58.6116 161.282ZM63.1403 159.139C63.1382 159.256 63.1222 159.363 63.0924 159.459C63.0646 159.555 63.0294 159.643 62.9868 159.724C62.9441 159.803 62.8972 159.878 62.846 159.948C62.7969 160.017 62.7511 160.084 62.7084 160.15C62.6658 160.216 62.6306 160.283 62.6028 160.351C62.5751 160.42 62.5612 160.492 62.5612 160.569C62.5612 160.633 62.574 160.693 62.5996 160.748C62.6252 160.801 62.6562 160.854 62.6924 160.905C62.7308 160.956 62.7724 161.008 62.8172 161.062C62.862 161.113 62.9025 161.167 62.9388 161.225C62.9772 161.282 63.0092 161.345 63.0348 161.414C63.0604 161.482 63.0732 161.558 63.0732 161.641C63.0732 161.775 63.039 161.904 62.9708 162.028C62.9025 162.154 62.8065 162.265 62.6828 162.361C62.5591 162.457 62.4098 162.533 62.2349 162.591C62.0621 162.649 61.8691 162.677 61.6558 162.677C61.4873 162.677 61.3326 162.66 61.1919 162.626C61.0532 162.592 60.9327 162.542 60.8303 162.476C60.7301 162.412 60.6522 162.333 60.5968 162.239C60.5413 162.145 60.5136 162.039 60.5136 161.919C60.5136 161.766 60.5541 161.629 60.6352 161.51C60.7141 161.392 60.8218 161.293 60.9583 161.212C61.0969 161.131 61.2569 161.069 61.4382 161.027C61.6217 160.984 61.8179 160.963 62.0269 160.963C62.0994 160.963 62.172 160.966 62.2445 160.972C62.317 160.976 62.3906 160.984 62.4653 160.995C62.429 160.945 62.3981 160.893 62.3725 160.838C62.349 160.782 62.3373 160.72 62.3373 160.652C62.3373 160.578 62.3501 160.502 62.3757 160.425C62.4013 160.348 62.4503 160.255 62.5228 160.147C62.4354 160.206 62.3426 160.252 62.2445 160.284C62.1485 160.316 62.0429 160.332 61.9277 160.332C61.8062 160.332 61.6931 160.313 61.5886 160.275C61.4841 160.236 61.3934 160.18 61.3166 160.105C61.242 160.028 61.1833 159.936 61.1407 159.827C61.098 159.716 61.0767 159.588 61.0767 159.443C61.0767 159.296 61.1023 159.152 61.1535 159.011C61.2068 158.868 61.2825 158.741 61.3806 158.63C61.4809 158.519 61.6035 158.431 61.7486 158.365C61.8936 158.296 62.0589 158.262 62.2445 158.262C62.3533 158.262 62.4557 158.276 62.5516 158.304C62.6476 158.329 62.7329 158.369 62.8076 158.422H63.6395L63.6267 158.525C63.6245 158.546 63.616 158.565 63.6011 158.582C63.5883 158.597 63.5669 158.607 63.5371 158.611L63.0188 158.653C63.0572 158.719 63.087 158.792 63.1084 158.873C63.1297 158.954 63.1403 159.043 63.1403 159.139ZM62.7948 161.66C62.7948 161.556 62.7777 161.466 62.7436 161.391C62.7095 161.317 62.6679 161.248 62.6188 161.187L62.622 161.196C62.5175 161.179 62.4183 161.167 62.3245 161.161C62.2306 161.155 62.14 161.151 62.0525 161.151C61.8414 161.151 61.6579 161.172 61.5022 161.212C61.3465 161.25 61.2164 161.304 61.1119 161.372C61.0095 161.438 60.9316 161.516 60.8783 161.606C60.8271 161.695 60.8015 161.789 60.8015 161.887C60.8015 161.979 60.8218 162.06 60.8623 162.13C60.905 162.203 60.9647 162.263 61.0415 162.31C61.1183 162.359 61.2111 162.396 61.3198 162.422C61.4286 162.447 61.5491 162.46 61.6814 162.46C61.8478 162.46 61.9992 162.438 62.1357 162.393C62.2722 162.348 62.3885 162.288 62.4845 162.214C62.5826 162.139 62.6583 162.054 62.7116 161.958C62.7649 161.862 62.7927 161.762 62.7948 161.66ZM61.9981 160.134C62.1346 160.134 62.2562 160.105 62.3629 160.047C62.4717 159.99 62.5634 159.915 62.638 159.824C62.7127 159.73 62.7692 159.624 62.8076 159.507C62.846 159.387 62.8652 159.268 62.8652 159.148C62.8652 158.927 62.8065 158.76 62.6892 158.649C62.5719 158.536 62.4141 158.48 62.2157 158.48C62.0792 158.48 61.9576 158.507 61.851 158.563C61.7443 158.616 61.6537 158.688 61.579 158.777C61.5065 158.867 61.451 158.97 61.4126 159.088C61.3742 159.203 61.355 159.321 61.355 159.443C61.355 159.669 61.4126 159.841 61.5278 159.958C61.643 160.075 61.7998 160.134 61.9981 160.134ZM63.8726 161.494L64.2565 158.301H64.3941C64.4666 158.301 64.5029 158.339 64.5029 158.416L64.4101 159.337C64.4975 159.169 64.5935 159.018 64.698 158.886C64.8047 158.752 64.9167 158.639 65.034 158.547C65.1513 158.453 65.2718 158.383 65.3955 158.336C65.5192 158.287 65.644 158.262 65.7699 158.262C66.0066 158.262 66.1847 158.34 66.3042 158.496C66.4236 158.651 66.4834 158.874 66.4834 159.164C66.4834 159.184 66.4823 159.206 66.4802 159.232C66.4802 159.255 66.477 159.293 66.4706 159.347C66.4663 159.4 66.4588 159.476 66.4482 159.574C66.4375 159.67 66.4226 159.801 66.4034 159.967C66.3842 160.132 66.3596 160.339 66.3298 160.588C66.3021 160.836 66.2669 161.137 66.2242 161.494H65.9234L66.1634 159.459C66.1762 159.361 66.1826 159.268 66.1826 159.18C66.1826 158.965 66.141 158.801 66.0578 158.688C65.9768 158.575 65.8477 158.518 65.6707 158.518C65.5512 158.518 65.4307 158.549 65.3091 158.611C65.1876 158.671 65.0692 158.757 64.954 158.87C64.841 158.981 64.7343 159.116 64.6341 159.276C64.5338 159.434 64.4453 159.612 64.3685 159.811L64.1733 161.494H63.8726ZM69.5787 158.918C69.5787 159.006 69.5669 159.089 69.5435 159.168C69.52 159.247 69.4784 159.321 69.4187 159.392C69.359 159.462 69.2779 159.529 69.1755 159.593C69.0731 159.655 68.942 159.713 68.782 159.766C68.622 159.817 68.4311 159.864 68.2093 159.907C67.9874 159.947 67.7272 159.983 67.4286 160.015C67.4243 160.06 67.4211 160.105 67.419 160.15C67.4169 160.193 67.4158 160.235 67.4158 160.278C67.4158 160.596 67.4873 160.844 67.6302 161.023C67.7752 161.202 67.9928 161.292 68.2829 161.292C68.3959 161.292 68.4972 161.28 68.5868 161.257C68.6785 161.231 68.7596 161.199 68.83 161.161C68.9025 161.123 68.9654 161.082 69.0187 161.039C69.0742 160.997 69.1233 160.956 69.1659 160.918C69.2086 160.879 69.2448 160.848 69.2747 160.825C69.3067 160.799 69.3355 160.787 69.3611 160.787C69.3867 160.787 69.4091 160.797 69.4283 160.819L69.4987 160.902C69.3942 161.013 69.2918 161.109 69.1915 161.19C69.0934 161.269 68.9932 161.334 68.8908 161.385C68.7905 161.436 68.686 161.473 68.5772 161.497C68.4684 161.522 68.3522 161.535 68.2285 161.535C68.0514 161.535 67.8936 161.506 67.755 161.449C67.6184 161.389 67.5033 161.306 67.4094 161.199C67.3156 161.091 67.2441 160.959 67.195 160.806C67.146 160.65 67.1215 160.476 67.1215 160.284C67.1215 160.124 67.1375 159.963 67.1694 159.801C67.2014 159.639 67.2484 159.483 67.3102 159.334C67.3742 159.185 67.4521 159.045 67.5438 158.915C67.6376 158.785 67.7443 158.672 67.8637 158.576C67.9832 158.48 68.1154 158.404 68.2605 158.349C68.4055 158.293 68.5623 158.265 68.7308 158.265C68.8865 158.265 69.0177 158.288 69.1243 158.333C69.2331 158.375 69.3206 158.43 69.3867 158.496C69.4549 158.56 69.504 158.63 69.5339 158.707C69.5637 158.782 69.5787 158.852 69.5787 158.918ZM68.7148 158.489C68.5442 158.489 68.3895 158.526 68.2509 158.598C68.1144 158.671 67.9928 158.768 67.8861 158.889C67.7816 159.009 67.6931 159.148 67.6206 159.308C67.5502 159.466 67.4979 159.632 67.4638 159.804C67.7347 159.774 67.9683 159.74 68.1645 159.702C68.3607 159.661 68.5271 159.62 68.6636 159.577C68.8001 159.532 68.91 159.484 68.9932 159.433C69.0785 159.382 69.1446 159.33 69.1915 159.276C69.2384 159.221 69.2694 159.164 69.2843 159.107C69.3014 159.049 69.3099 158.99 69.3099 158.928C69.3099 158.883 69.2992 158.835 69.2779 158.784C69.2587 158.73 69.2256 158.682 69.1787 158.64C69.1318 158.597 69.0699 158.562 68.9932 158.534C68.9185 158.504 68.8257 158.489 68.7148 158.489ZM70.1115 161.494L70.4954 158.301H70.633C70.7076 158.301 70.745 158.339 70.745 158.416L70.6522 159.363C70.7972 159.015 70.9625 158.747 71.1481 158.56C71.3358 158.37 71.5352 158.275 71.7464 158.275C71.8339 158.275 71.9234 158.293 72.0152 158.329L71.9608 158.614C71.8627 158.578 71.7709 158.56 71.6856 158.56C71.4574 158.56 71.2516 158.673 71.0681 158.899C70.8868 159.123 70.7311 159.447 70.601 159.872L70.409 161.494H70.1115Z" fill="black"/>
<rect width="53.7724" height="15.1544" rx="3.19948" transform="matrix(0.420268 -0.908435 0.834743 0.552637 62.4887 78.3973)" fill="#E4DCD0"/>
<path d="M75.0253 69.8057L76.0099 71.0166L75.9573 71.1298C75.9465 71.153 75.9313 71.1683 75.9116 71.1756C75.892 71.1828 75.8706 71.1788 75.8474 71.1635C75.8349 71.1553 75.822 71.143 75.8087 71.1266L74.9201 70.0322L74.5155 70.9034L75.4148 72.0048C75.4459 72.0431 75.4632 72.081 75.4667 72.1187C75.471 72.1545 75.466 72.1878 75.4516 72.2188L75.3963 72.3379L74.4117 71.127L74.1649 71.6584C74.1415 71.7088 74.1085 71.7198 74.0657 71.6916C74.0586 71.6869 74.0523 71.6828 74.047 71.6793C74.0408 71.6726 74.0336 71.6654 74.0256 71.6576L73.9575 71.5861L74.2529 70.9502L73.383 69.8833L73.0418 70.618L72.9564 70.5237C72.9074 70.4737 72.9014 70.409 72.9383 70.3296L73.2268 69.7082L72.3263 68.5945C72.2978 68.5605 72.2814 68.5257 72.2771 68.4899C72.2719 68.4511 72.2769 68.4152 72.2922 68.3823L72.3461 68.2661L73.332 69.4817L73.7353 68.6134L72.7507 67.3949L72.806 67.2759C72.8168 67.2526 72.8315 67.2384 72.8503 67.233C72.8682 67.2246 72.8878 67.2274 72.9092 67.2415C72.9217 67.2498 72.9346 67.2621 72.9479 67.2785L73.8405 68.3869L74.1452 67.7306L74.2253 67.8289C74.2493 67.8574 74.2635 67.887 74.2679 67.9177C74.2731 67.9464 74.2668 67.9802 74.2488 68.0189L73.9966 68.5619L74.8665 69.6289L75.1713 68.9726C75.1964 68.9183 75.2322 68.9065 75.2785 68.9371C75.2839 68.9406 75.2901 68.9447 75.2972 68.9494C75.3026 68.953 75.3079 68.959 75.3133 68.9676L75.3786 69.0448L75.0253 69.8057ZM74.3567 70.7266L74.7613 69.8554L73.8928 68.7855L73.4882 69.6567L74.3567 70.7266ZM76.9191 69.0588L74.4131 66.9507L74.4711 66.8258C74.5017 66.76 74.549 66.7482 74.6132 66.7906L75.3439 67.3826C75.24 67.2103 75.1548 67.0403 75.0884 66.8726C75.0211 66.7018 74.9738 66.5378 74.9467 66.3808C74.9177 66.2226 74.9097 66.0744 74.9226 65.9363C74.9338 65.7969 74.9659 65.6702 75.0189 65.556C75.1187 65.3411 75.2588 65.2223 75.4393 65.1997C75.6197 65.1771 75.8311 65.2457 76.0735 65.4056C76.0895 65.4162 76.1078 65.4295 76.1283 65.4455C76.1479 65.4584 76.1786 65.4825 76.2205 65.5177C76.2632 65.5509 76.3233 65.5995 76.4008 65.6632C76.4765 65.7258 76.5798 65.8116 76.7107 65.9207C76.8399 66.0287 77.0024 66.1649 77.1983 66.3296C77.3933 66.4911 77.6307 66.6894 77.9103 66.9244L77.7835 67.1974L76.1845 65.8582C76.108 65.7925 76.0331 65.7356 75.9601 65.6874C75.7801 65.5686 75.6253 65.5159 75.4958 65.5291C75.3672 65.5404 75.2656 65.6263 75.191 65.787C75.1406 65.8954 75.1157 66.0219 75.1161 66.1663C75.1147 66.3096 75.137 66.4646 75.1829 66.6315C75.2279 66.7952 75.2962 66.9666 75.3876 67.1458C75.4772 67.3238 75.5887 67.5023 75.722 67.6813L77.0458 68.7858L76.9191 69.0588ZM79.2271 64.0888L79.1651 64.2224C79.148 64.2592 79.1278 64.28 79.1046 64.2849C79.0823 64.2879 79.0595 64.2818 79.0363 64.2665L78.2442 63.6188C78.3526 63.7864 78.4449 63.9535 78.5212 64.1201C78.5965 64.2837 78.6527 64.4434 78.6897 64.5993C78.7276 64.7533 78.7441 64.9007 78.7392 65.0416C78.7343 65.1825 78.7044 65.3121 78.6496 65.4301C78.593 65.5521 78.5221 65.6445 78.4371 65.7073C78.3503 65.7689 78.2524 65.8042 78.1434 65.8133C78.0354 65.8204 77.9171 65.8018 77.7887 65.7576C77.6602 65.7133 77.5247 65.6442 77.3822 65.5501C77.2271 65.4479 77.0855 65.3267 76.9574 65.1865C76.8275 65.0452 76.7137 64.8917 76.616 64.7261C76.5192 64.5586 76.4398 64.3836 76.3779 64.2011C76.316 64.0186 76.2741 63.8355 76.2524 63.6517C76.2316 63.466 76.2326 63.2833 76.2555 63.1037C76.2784 62.9241 76.3267 62.7549 76.4004 62.5961C76.4544 62.48 76.5145 62.378 76.5809 62.2903C76.6454 62.2014 76.7238 62.1228 76.816 62.0546L79.2271 64.0888ZM78.4802 65.2008C78.5315 65.0905 78.5533 64.9633 78.5457 64.8192C78.539 64.6731 78.5065 64.5176 78.4481 64.3527C78.3879 64.1865 78.3045 64.0126 78.1979 63.8311C78.0905 63.6464 77.9634 63.4614 77.8166 63.2761L76.8015 62.4168C76.7128 62.5075 76.6374 62.6197 76.5754 62.7533C76.5151 62.883 76.4772 63.0223 76.4615 63.1713C76.4441 63.3192 76.4459 63.4708 76.4668 63.6262C76.4886 63.7797 76.5274 63.9343 76.5832 64.0899C76.6398 64.2436 76.7117 64.3922 76.7987 64.5356C76.884 64.6778 76.9832 64.8102 77.0962 64.9328C77.2101 65.0535 77.3347 65.1585 77.4702 65.2478C77.709 65.4053 77.9154 65.4846 78.0896 65.4856C78.2628 65.4836 78.393 65.3886 78.4802 65.2008ZM79.3275 62.6169C79.3168 62.6098 79.3034 62.601 79.2874 62.5904C79.2723 62.5779 79.2491 62.5601 79.2179 62.537C79.1876 62.512 79.1489 62.4801 79.1017 62.4414C79.0536 62.3996 78.9926 62.348 78.9187 62.2866L77.5001 61.0929L77.3234 61.4733C77.3054 61.512 77.2795 61.5202 77.2456 61.4979L77.1428 61.4111L77.3224 60.934L76.4598 60.1147C76.4456 60.1002 76.4354 60.0821 76.4292 60.0603C76.423 60.0385 76.4244 60.018 76.4334 59.9986L76.4954 59.865L77.4478 60.6715L77.8362 59.8352L78.0152 59.9836L77.6268 60.8199L79.0361 62.0112C79.1047 62.0691 79.1608 62.1162 79.2044 62.1526C79.248 62.1889 79.2841 62.219 79.3126 62.2429C79.3393 62.2656 79.3594 62.2826 79.3727 62.2939C79.387 62.3033 79.3977 62.3104 79.4048 62.3151C79.5206 62.3915 79.6179 62.4177 79.6965 62.3937C79.7761 62.3678 79.8374 62.3083 79.8806 62.2154C79.9103 62.1515 79.9274 62.0895 79.9321 62.0294C79.9358 61.9661 79.9356 61.909 79.9313 61.8581C79.9252 61.8061 79.9186 61.7625 79.9116 61.7275C79.9028 61.6914 79.9011 61.6675 79.9065 61.6559C79.9119 61.6443 79.9186 61.6373 79.9266 61.635C79.9329 61.6316 79.9418 61.6299 79.9534 61.6299L80.09 61.6517C80.1289 61.7785 80.1459 61.9124 80.1409 62.0533C80.1342 62.193 80.1053 62.3181 80.054 62.4284C79.9803 62.5872 79.8822 62.6856 79.7598 62.7237C79.6382 62.7599 79.4941 62.7243 79.3275 62.6169ZM78.1771 58.8681L79.768 60.2019C79.8464 60.2688 79.9212 60.3257 79.9925 60.3728C80.1743 60.4927 80.3304 60.5476 80.4608 60.5375C80.5903 60.5243 80.6924 60.4373 80.767 60.2766C80.8164 60.1701 80.8414 60.0462 80.8418 59.9049C80.8423 59.7636 80.82 59.611 80.775 59.4473C80.7282 59.2824 80.6608 59.1116 80.573 58.9348C80.4834 58.7568 80.3728 58.5789 80.2412 58.401L78.9134 57.2825L79.0402 57.0095L81.5381 59.1123L81.4788 59.2401C81.4617 59.2769 81.4402 59.2981 81.4143 59.3038C81.3893 59.3075 81.3616 59.2994 81.3313 59.2794L80.6153 58.6933C80.7192 58.8655 80.804 59.0365 80.8695 59.2062C80.9359 59.3739 80.9827 59.5363 81.0099 59.6933C81.0362 59.8472 81.0438 59.9939 81.0326 60.1332C81.0197 60.2713 80.9871 60.3965 80.935 60.5088C80.8352 60.7237 80.6951 60.8425 80.5146 60.8651C80.3333 60.8846 80.1215 60.8144 79.8791 60.6545C79.8631 60.644 79.8461 60.6328 79.8283 60.621C79.8096 60.6062 79.7789 60.5821 79.7361 60.5489C79.6925 60.5125 79.6328 60.463 79.5571 60.4004C79.4814 60.3379 79.379 60.2526 79.2499 60.1447C79.119 60.0356 78.956 59.9003 78.761 59.7387C78.5668 59.5753 78.33 59.376 78.0503 59.141L78.1771 58.8681ZM81.973 58.1758L79.4671 56.0677L79.5251 55.9428C79.5565 55.8751 79.6043 55.8624 79.6685 55.9047L80.4206 56.5108C80.1913 56.1875 80.0373 55.89 79.9587 55.6181C79.8792 55.3431 79.884 55.1098 79.973 54.9181C80.0098 54.8388 80.0627 54.7675 80.1317 54.7042L80.3467 54.9105C80.275 54.9796 80.2212 55.0528 80.1853 55.1302C80.0891 55.3374 80.0968 55.5865 80.2083 55.8776C80.319 56.1656 80.5243 56.4856 80.8241 56.8376L82.0984 57.9058L81.973 58.1758ZM80.2301 54.4471L80.3205 54.2526C80.343 54.2042 80.3778 54.1892 80.4251 54.2078L82.7042 55.2027C82.747 55.2208 82.7871 55.2422 82.8246 55.2669C82.8611 55.2885 82.8972 55.311 82.9328 55.3345C82.9044 55.2955 82.8759 55.2565 82.8475 55.2175C82.8172 55.1774 82.7866 55.1356 82.7555 55.0924L81.0995 52.7028C81.0675 52.6614 81.0614 52.6195 81.0812 52.5769L81.1297 52.4723C81.1495 52.4297 81.1804 52.4185 81.2223 52.4385L83.5376 53.408C83.5831 53.4254 83.625 53.4455 83.6634 53.4682C83.7026 53.489 83.7418 53.5098 83.781 53.5306C83.749 53.4943 83.7174 53.4571 83.6863 53.4188C83.6551 53.3806 83.6236 53.3383 83.5916 53.2919L81.9328 50.9611C81.9177 50.9385 81.9084 50.9159 81.9049 50.8934C81.9005 50.8677 81.9033 50.8442 81.9132 50.823L82.0022 50.6313L84.0874 53.6227L83.9957 53.8202C83.9823 53.8492 83.955 53.8553 83.914 53.8384L81.5477 52.858C81.4987 52.8383 81.4555 52.8161 81.418 52.7914C81.451 52.8309 81.4838 52.8753 81.5167 52.9248L83.2019 55.3717C83.2322 55.4118 83.2401 55.4474 83.2257 55.4784L83.1367 55.6701L80.2301 54.4471ZM83.6122 48.5929C83.6853 48.6411 83.7499 48.6976 83.8059 48.7624C83.862 48.8272 83.9068 48.9061 83.9404 48.9991C83.9741 49.0921 83.996 49.2026 84.0063 49.3308C84.0149 49.4579 84.0077 49.6087 83.9848 49.7832C83.9602 49.9567 83.9189 50.1558 83.861 50.3806C83.8014 50.6043 83.722 50.8605 83.6229 51.1492C83.6585 51.1777 83.6946 51.2053 83.7311 51.2319C83.7658 51.2574 83.801 51.2818 83.8367 51.3054C84.1022 51.4805 84.3399 51.5526 84.5499 51.5216C84.7607 51.4887 84.9273 51.3406 85.0495 51.0773C85.0972 50.9747 85.1301 50.8763 85.1482 50.782C85.1655 50.6847 85.1729 50.5935 85.1705 50.5084C85.169 50.4214 85.1617 50.342 85.1485 50.2701C85.1363 50.1962 85.1231 50.1294 85.109 50.0695C85.0949 50.0096 85.0843 49.9597 85.0773 49.9196C85.0694 49.8765 85.0709 49.8433 85.0816 49.8201C85.0924 49.7968 85.1108 49.7824 85.1367 49.7767L85.2359 49.7587C85.2845 49.9147 85.3215 50.0605 85.347 50.1961C85.3716 50.3287 85.3837 50.4555 85.3833 50.5767C85.3838 50.6959 85.3709 50.8113 85.3447 50.923C85.3202 51.0358 85.2819 51.1484 85.2298 51.2607C85.1551 51.4213 85.0645 51.5487 84.958 51.6428C84.8506 51.7338 84.7325 51.7925 84.6038 51.819C84.4734 51.8442 84.3337 51.8368 84.1847 51.7967C84.0339 51.7554 83.8783 51.6818 83.718 51.576C83.5843 51.4879 83.4565 51.3846 83.3345 51.2662C83.2126 51.1479 83.1023 51.0195 83.0036 50.8811C82.9058 50.7407 82.8219 50.593 82.7519 50.4381C82.6827 50.2812 82.6332 50.1221 82.6034 49.9608C82.5735 49.7995 82.566 49.6377 82.5808 49.4755C82.5956 49.3133 82.6385 49.1557 82.7095 49.0028C82.7752 48.8615 82.8492 48.7547 82.9315 48.6826C83.013 48.6074 83.0953 48.558 83.1785 48.5344C83.2607 48.5077 83.3402 48.502 83.4169 48.5172C83.4919 48.5312 83.557 48.5565 83.6122 48.5929ZM82.8899 49.1407C82.818 49.2956 82.7831 49.4559 82.7853 49.6217C82.7883 49.7856 82.8181 49.9495 82.8748 50.1133C82.9305 50.2739 83.0099 50.4313 83.113 50.5853C83.2152 50.7361 83.3313 50.8747 83.4613 51.0008C83.5505 50.7385 83.6204 50.5077 83.6711 50.3084C83.7199 50.108 83.7553 49.9341 83.7772 49.7867C83.7973 49.6381 83.8035 49.5119 83.7958 49.4082C83.789 49.3026 83.7732 49.2137 83.7484 49.1418C83.7219 49.0686 83.6877 49.0094 83.6459 48.9641C83.605 48.9169 83.5587 48.8762 83.507 48.8421C83.4695 48.8175 83.425 48.8007 83.3732 48.7918C83.3205 48.7799 83.2665 48.7834 83.2111 48.8025C83.1557 48.8216 83.1002 48.8583 83.0447 48.9128C82.9882 48.9641 82.9367 49.0401 82.8899 49.1407ZM83.6526 47.0773L86.1492 49.1831L86.0238 49.4531L83.5272 47.3474L83.6526 47.0773ZM82.8341 46.2606C82.8662 46.2817 82.8934 46.3085 82.9156 46.3409C82.936 46.372 82.9515 46.4063 82.9621 46.4436C82.9727 46.481 82.9771 46.5193 82.9752 46.5585C82.9742 46.5957 82.9665 46.6298 82.9521 46.6608C82.9368 46.6937 82.9162 46.7206 82.8902 46.7414C82.8642 46.7622 82.8352 46.7772 82.803 46.7863C82.7717 46.7935 82.7396 46.7951 82.7066 46.791C82.6717 46.7857 82.6383 46.7725 82.6062 46.7514C82.5741 46.7302 82.547 46.7034 82.5248 46.6711C82.5026 46.6387 82.4857 46.6048 82.4742 46.5694C82.4618 46.5309 82.4561 46.493 82.4572 46.4558C82.4582 46.4185 82.4663 46.3834 82.4816 46.3505C82.496 46.3195 82.5162 46.2936 82.5421 46.2728C82.569 46.2501 82.5985 46.2341 82.6307 46.225C82.6628 46.2159 82.6972 46.2145 82.7338 46.221C82.7686 46.2262 82.8021 46.2394 82.8341 46.2606ZM86.624 48.1606L84.118 46.0525L84.176 45.9277C84.2066 45.8618 84.2539 45.8501 84.3181 45.8924L85.0488 46.4844C84.9449 46.3122 84.8597 46.1422 84.7933 45.9744C84.726 45.8036 84.6787 45.6396 84.6516 45.4826C84.6226 45.3244 84.6146 45.1762 84.6275 45.0381C84.6387 44.8988 84.6708 44.772 84.7238 44.6578C84.8236 44.4429 84.9637 44.3241 85.1442 44.3015C85.3246 44.2789 85.536 44.3475 85.7784 44.5074C85.7944 44.518 85.8127 44.5313 85.8332 44.5473C85.8528 44.5603 85.8835 44.5843 85.9254 44.6195C85.9681 44.6528 86.0282 44.7013 86.1057 44.765C86.1814 44.8276 86.2847 44.9134 86.4156 45.0226C86.5448 45.1305 86.7073 45.2668 86.9032 45.4314C87.0982 45.5929 87.3356 45.7912 87.6152 46.0262L87.4884 46.2992L85.8894 44.96C85.8129 44.8943 85.738 44.8374 85.665 44.7892C85.485 44.6705 85.3302 44.6177 85.2007 44.6309C85.0721 44.6422 84.9705 44.7282 84.8959 44.8889C84.8455 44.9973 84.8206 45.1237 84.821 45.2681C84.8196 45.4114 84.8419 45.5665 84.8878 45.7333C84.9328 45.897 85.0011 46.0685 85.0925 46.2476C85.1821 46.4256 85.2936 46.6041 85.4269 46.7831L86.7507 47.8877L86.624 48.1606Z" fill="black"/>
<rect width="52.9697" height="15.0594" rx="3.19948" transform="matrix(0.561388 0.827798 -0.72805 0.685839 28.3339 18.0078)" fill="#E4DCD0"/>
<path d="M31.3523 36.2858L30.0542 36.8657L29.9841 36.7624C29.9698 36.7412 29.9632 36.7184 29.9645 36.6941C29.9658 36.6697 29.9765 36.648 29.9967 36.629C30.0076 36.6188 30.0218 36.6097 30.0394 36.6019L31.2122 36.0793L30.6731 35.2849L29.491 35.8163C29.45 35.8346 29.4141 35.838 29.3834 35.8265C29.3538 35.8167 29.3295 35.7977 29.3103 35.7694L29.2366 35.6609L30.5347 35.081L30.2059 34.5965C30.1748 34.5506 30.1778 34.5101 30.2151 34.475C30.2213 34.4691 30.2268 34.464 30.2314 34.4596C30.2388 34.4555 30.247 34.4507 30.256 34.4452L30.3361 34.4001L30.7297 34.98L31.8743 34.4666L31.4197 33.7966L31.5238 33.742C31.5804 33.709 31.6332 33.7287 31.6823 33.8011L32.0668 34.3677L33.259 33.8399C33.2957 33.8227 33.3288 33.819 33.3583 33.8288C33.3906 33.8389 33.417 33.8589 33.4373 33.889L33.5092 33.9949L32.207 34.5742L32.7442 35.366L34.0483 34.7892L34.1219 34.8978C34.1363 34.919 34.1423 34.9409 34.1398 34.9635C34.14 34.9864 34.1308 35.0066 34.1122 35.0241C34.1013 35.0344 34.0871 35.0434 34.0695 35.0513L32.8844 35.5725L33.2905 36.1709L33.185 36.2181C33.1542 36.2327 33.126 36.2361 33.1004 36.2284C33.076 36.2224 33.0518 36.2018 33.0278 36.1665L32.6918 35.6713L31.5472 36.1848L31.9533 36.7832C31.9868 36.8326 31.9834 36.8764 31.943 36.9144C31.9384 36.9188 31.9329 36.9239 31.9267 36.9297C31.9221 36.9341 31.9154 36.9375 31.9068 36.9398L31.8231 36.9796L31.3523 36.2858ZM30.868 35.1839L31.4071 35.9782L32.5535 35.4675L32.0144 34.6731L30.868 35.1839ZM31.2656 38.6507L33.8065 36.7794L33.8837 36.8932C33.9257 36.955 33.9187 37.0122 33.8628 37.0649L33.121 37.6374C33.4556 37.519 33.7434 37.4723 33.9843 37.4972C34.228 37.5224 34.4091 37.6224 34.5277 37.7971C34.5768 37.8695 34.6139 37.9561 34.639 38.0569L34.4011 38.2071C34.3724 38.101 34.3341 38.0127 34.2862 37.9421C34.158 37.7532 33.9601 37.6603 33.6924 37.6635C33.4275 37.667 33.1039 37.7604 32.7218 37.9438L31.4327 38.897L31.2656 38.6507ZM33.1868 41.133C33.291 41.2866 33.4206 41.3931 33.5755 41.4527C33.7332 41.5125 33.9009 41.5326 34.0784 41.5129C34.2576 41.4918 34.4387 41.4342 34.6217 41.34C34.8074 41.2461 34.9803 41.1239 35.1403 40.9732C35.3888 40.7393 35.5381 40.496 35.5882 40.2434C35.6383 39.9909 35.5879 39.7534 35.437 39.531C35.3675 39.4286 35.2859 39.3477 35.1922 39.2884C35.1 39.2276 34.9994 39.1864 34.8905 39.1646C34.7815 39.1428 34.6664 39.1383 34.5453 39.151C34.4269 39.1641 34.3067 39.1934 34.1848 39.2388C34.064 39.2859 33.9438 39.347 33.8242 39.422C33.7057 39.4988 33.5921 39.5884 33.4834 39.6907C33.2364 39.9233 33.0865 40.1656 33.0337 40.4179C32.9836 40.6704 33.0346 40.9088 33.1868 41.133ZM32.9976 41.2763C32.9018 41.1351 32.8361 40.9858 32.8005 40.8283C32.7662 40.6726 32.762 40.5146 32.788 40.3541C32.8152 40.1954 32.8715 40.0382 32.9569 39.8827C33.045 39.7274 33.1636 39.5796 33.3127 39.4392C33.5007 39.2623 33.7024 39.1244 33.9179 39.0256C34.135 38.9254 34.3485 38.8705 34.5584 38.8609C34.7695 38.8531 34.9678 38.8921 35.1533 38.9779C35.3403 39.0622 35.4985 39.1997 35.6279 39.3903C35.7237 39.5315 35.788 39.6807 35.8209 39.8379C35.8564 39.9953 35.8606 40.1534 35.8334 40.3121C35.8089 40.4711 35.7526 40.6282 35.6645 40.7835C35.5776 40.9405 35.4611 41.0878 35.3151 41.2252C35.1272 41.4022 34.9248 41.5392 34.7081 41.6362C34.4926 41.7349 34.2791 41.7898 34.0676 41.8008C33.8577 41.8104 33.6593 41.773 33.4722 41.6887C33.2852 41.6044 33.127 41.467 32.9976 41.2763ZM37.3786 42.7468C37.3473 42.7531 37.3232 42.7439 37.3065 42.7192C37.2945 42.7016 37.2888 42.6707 37.2895 42.6267C37.2929 42.583 37.2913 42.5281 37.2847 42.462C37.2796 42.3945 37.2642 42.3193 37.2385 42.2364C37.2144 42.1521 37.1694 42.0614 37.1035 41.9643C37.0424 41.8743 36.9711 41.8011 36.8896 41.7447C36.8093 41.6902 36.7262 41.6541 36.6404 41.6365C36.5574 41.6192 36.4744 41.6206 36.3914 41.6409C36.3112 41.6615 36.2385 41.7025 36.1732 41.7639C36.1095 41.8238 36.0673 41.891 36.0466 41.9655C36.0259 42.04 36.0178 42.12 36.0223 42.2054C36.0295 42.2911 36.0449 42.3794 36.0683 42.4702C36.0929 42.5627 36.1187 42.657 36.1457 42.7531C36.1728 42.8492 36.1949 42.9455 36.2121 43.0422C36.232 43.1391 36.2404 43.2339 36.2371 43.3267C36.2351 43.4212 36.2159 43.513 36.1797 43.6021C36.1449 43.6898 36.0864 43.7723 36.0041 43.8498C35.9047 43.9434 35.7928 44.0111 35.6685 44.053C35.5453 44.0966 35.4191 44.1113 35.2898 44.097C35.162 44.0813 35.0363 44.0348 34.9125 43.9575C34.79 43.8819 34.6796 43.7718 34.5814 43.627C34.4652 43.4558 34.3938 43.2887 34.3672 43.1257C34.3421 42.9612 34.3434 42.798 34.3709 42.6361L34.4915 42.6224C34.5111 42.6213 34.5276 42.6231 34.541 42.6279C34.5544 42.6326 34.5665 42.6429 34.5773 42.6588C34.5893 42.6765 34.5918 42.7102 34.5849 42.7601C34.578 42.81 34.5746 42.8725 34.5747 42.9476C34.5776 43.0231 34.5911 43.1087 34.6154 43.2045C34.6396 43.3002 34.6889 43.4028 34.7632 43.5123C34.8338 43.6164 34.9127 43.697 34.9997 43.7539C35.0895 43.8112 35.1811 43.845 35.2746 43.8553C35.3694 43.8673 35.4623 43.858 35.5534 43.8272C35.6461 43.7949 35.7312 43.7422 35.8089 43.6691C35.8772 43.6047 35.9233 43.5339 35.9472 43.4565C35.971 43.379 35.9807 43.2976 35.9762 43.2122C35.9732 43.1253 35.9594 43.0356 35.9348 42.943C35.9102 42.8505 35.8836 42.7569 35.855 42.6623C35.8292 42.568 35.8055 42.4731 35.784 42.3776C35.7641 42.2807 35.7549 42.1866 35.7566 42.0953C35.7583 42.004 35.7758 41.9153 35.8089 41.8291C35.8421 41.7429 35.8991 41.6618 35.9798 41.5858C36.0699 41.501 36.1711 41.4419 36.2834 41.4085C36.3972 41.3737 36.5129 41.366 36.6305 41.3855C36.7496 41.4035 36.865 41.4497 36.9765 41.524C37.0896 41.5969 37.1905 41.6987 37.2791 41.8293C37.3798 41.9776 37.447 42.1254 37.4809 42.2729C37.5148 42.4204 37.5201 42.5745 37.4968 42.7353L37.3786 42.7468ZM38.8634 45.3174C38.7997 45.3773 38.7325 45.4246 38.6619 45.4593C38.5912 45.494 38.5135 45.5108 38.4287 45.5096C38.3439 45.5084 38.2494 45.4874 38.1453 45.4465C38.0428 45.4042 37.9272 45.3351 37.7985 45.2393C37.6714 45.142 37.53 45.0162 37.3744 44.8619C37.2203 44.7061 37.0477 44.5155 36.8567 44.2903C36.8217 44.3175 36.7873 44.3456 36.7535 44.3745C36.7212 44.402 36.6895 44.4304 36.6585 44.4596C36.427 44.6775 36.2862 44.907 36.236 45.1481C36.187 45.391 36.2439 45.6325 36.4068 45.8725C36.4703 45.9661 36.5357 46.0419 36.6031 46.1C36.6733 46.1583 36.7421 46.2035 36.8096 46.2354C36.8783 46.2691 36.9431 46.2934 37.0042 46.3083C37.0664 46.3249 37.1234 46.3377 37.1753 46.3467C37.2273 46.3557 37.2702 46.3645 37.304 46.3731C37.3406 46.3821 37.3661 46.3971 37.3805 46.4183C37.3949 46.4395 37.3997 46.4653 37.3949 46.4958L37.3739 46.6111C37.2344 46.6007 37.107 46.5817 36.9917 46.5543C36.8791 46.5272 36.7754 46.4889 36.6806 46.4392C36.5871 46.3914 36.5012 46.3305 36.423 46.2565C36.3433 46.184 36.2687 46.0966 36.1992 45.9942C36.0998 45.8477 36.0321 45.6973 35.9962 45.5431C35.963 45.3892 35.9589 45.2368 35.9838 45.0861C36.0104 44.9338 36.0658 44.7847 36.15 44.6388C36.2359 44.4915 36.3487 44.352 36.4885 44.2204C36.605 44.1107 36.7313 44.0136 36.8673 43.9289C37.0033 43.8442 37.143 43.7763 37.2865 43.7252C37.4312 43.6758 37.5766 43.6444 37.7229 43.6311C37.8704 43.6196 38.0126 43.6303 38.1496 43.6634C38.2865 43.6964 38.4159 43.754 38.5378 43.836C38.6596 43.918 38.7679 44.0287 38.8625 44.1682C38.95 44.2971 39.0073 44.421 39.0346 44.5399C39.0646 44.6592 39.0741 44.7689 39.0631 44.8689C39.0548 44.9693 39.0311 45.0582 38.992 45.1355C38.9544 45.2114 38.9115 45.272 38.8634 45.3174ZM38.6904 44.3085C38.5946 44.1673 38.4813 44.0642 38.3507 43.9991C38.2212 43.9359 38.0822 43.9018 37.9338 43.8969C37.7881 43.8923 37.6367 43.9148 37.4794 43.9645C37.325 44.0144 37.1752 44.0845 37.0302 44.1747C37.2041 44.3784 37.3602 44.5483 37.4983 44.6844C37.638 44.819 37.7618 44.9282 37.8695 45.0119C37.9788 45.0942 38.0754 45.1522 38.1594 45.1859C38.2446 45.2215 38.3198 45.2404 38.385 45.2426C38.4517 45.2434 38.5103 45.2303 38.5606 45.2032C38.6121 45.1778 38.6604 45.1439 38.7054 45.1015C38.7381 45.0708 38.767 45.0291 38.7923 44.9763C38.8204 44.9239 38.8367 44.8636 38.8415 44.7955C38.8462 44.7275 38.8371 44.6521 38.8141 44.5696C38.794 44.4873 38.7527 44.4003 38.6904 44.3085ZM39.5909 45.3204L39.7113 45.4978C39.7412 45.5419 39.7406 45.5859 39.7093 45.6298L38.121 47.7066C38.0917 47.7458 38.0607 47.7808 38.028 47.8115C37.9982 47.8425 37.9677 47.8726 37.9366 47.9019C37.9773 47.8867 38.0179 47.8716 38.0586 47.8565C38.1008 47.8399 38.1444 47.8235 38.1893 47.8072L40.6492 46.9755C40.6929 46.9575 40.728 46.9678 40.7543 47.0067L40.819 47.102C40.8454 47.1408 40.8433 47.179 40.8127 47.2165L39.2315 49.343C39.2018 49.3854 39.1712 49.4229 39.1398 49.4554C39.1095 49.4896 39.0793 49.5238 39.0491 49.5581C39.0889 49.538 39.1293 49.5187 39.1703 49.5004C39.2113 49.482 39.2557 49.4648 39.3034 49.4489L41.7181 48.5902C41.7412 48.5829 41.7622 48.582 41.7811 48.5873C41.8028 48.593 41.8202 48.6055 41.8334 48.6249L41.952 48.7997L38.8682 49.8542L38.746 49.6742C38.728 49.6477 38.733 49.6156 38.7608 49.5778L40.3685 47.4003C40.4013 47.3549 40.4341 47.3169 40.4667 47.2862C40.4241 47.306 40.3776 47.3237 40.3272 47.3394L37.8121 48.1797C37.7699 48.1963 37.7392 48.1905 37.72 48.1622L37.6014 47.9875L39.5909 45.3204ZM42.9778 51.3805C42.9141 51.4405 42.8469 51.4878 42.7763 51.5225C42.7056 51.5572 42.6279 51.5739 42.5431 51.5727C42.4583 51.5716 42.3639 51.5506 42.2598 51.5097C42.1572 51.4674 42.0416 51.3983 41.9129 51.3025C41.7858 51.2052 41.6444 51.0793 41.4888 50.925C41.3347 50.7692 41.1621 50.5787 40.9711 50.3535C40.9361 50.3807 40.9017 50.4087 40.8679 50.4377C40.8356 50.4652 40.804 50.4935 40.7729 50.5228C40.5415 50.7407 40.4006 50.9702 40.3504 51.2113C40.3014 51.4541 40.3583 51.6956 40.5212 51.9357C40.5847 52.0292 40.6502 52.1051 40.7176 52.1631C40.7877 52.2215 40.8565 52.2666 40.924 52.2985C40.9927 52.3322 41.0576 52.3565 41.1186 52.3714C41.1808 52.3881 41.2379 52.4009 41.2898 52.4099C41.3417 52.4188 41.3846 52.4277 41.4184 52.4363C41.455 52.4452 41.4805 52.4603 41.4949 52.4814C41.5093 52.5026 41.5141 52.5285 41.5093 52.559L41.4883 52.6743C41.3488 52.6638 41.2214 52.6449 41.1061 52.6175C40.9935 52.5904 40.8899 52.552 40.7951 52.5024C40.7015 52.4545 40.6156 52.3936 40.5374 52.3197C40.4577 52.2472 40.3831 52.1598 40.3136 52.0574C40.2142 51.9109 40.1465 51.7605 40.1106 51.6063C40.0774 51.4523 40.0733 51.3 40.0983 51.1492C40.1248 50.997 40.1802 50.8479 40.2645 50.702C40.3503 50.5546 40.4631 50.4152 40.6029 50.2836C40.7194 50.1739 40.8457 50.0767 40.9817 49.9921C41.1177 49.9074 41.2575 49.8395 41.4009 49.7883C41.5456 49.7389 41.6911 49.7076 41.8373 49.6943C41.9848 49.6827 42.127 49.6935 42.264 49.7265C42.401 49.7596 42.5304 49.8171 42.6522 49.8991C42.7741 49.9811 42.8823 50.0919 42.9769 50.2313C43.0644 50.3602 43.1217 50.4841 43.149 50.6031C43.179 50.7224 43.1886 50.832 43.1775 50.9321C43.1693 51.0324 43.1456 51.1213 43.1064 51.1987C43.0688 51.2746 43.0259 51.3352 42.9778 51.3805ZM42.8049 50.3716C42.709 50.2304 42.5958 50.1273 42.4651 50.0623C42.3356 49.999 42.1967 49.9649 42.0482 49.96C41.9025 49.9554 41.7511 49.9779 41.5939 50.0276C41.4394 50.0776 41.2897 50.1476 41.1447 50.2379C41.3186 50.4416 41.4746 50.6115 41.6127 50.7475C41.7525 50.8822 41.8762 50.9913 41.9839 51.0751C42.0932 51.1573 42.1898 51.2153 42.2738 51.2491C42.359 51.2846 42.4342 51.3035 42.4994 51.3058C42.5662 51.3066 42.6247 51.2934 42.675 51.2663C42.7265 51.241 42.7748 51.2071 42.8199 51.1647C42.8525 51.134 42.8814 51.0922 42.9067 51.0395C42.9348 50.987 42.9512 50.9268 42.9559 50.8587C42.9606 50.7906 42.9515 50.7153 42.9286 50.6327C42.9084 50.5505 42.8671 50.4634 42.8049 50.3716ZM44.151 52.0402L41.6152 53.9023L41.4481 53.6561L43.9838 51.7939L44.151 52.0402ZM45.0813 51.4811C45.0533 51.5074 45.0227 51.5261 44.9895 51.5372C44.9578 51.5467 44.9255 51.5497 44.8925 51.5461C44.8594 51.5424 44.8279 51.5316 44.7979 51.5136C44.769 51.4974 44.745 51.4751 44.7259 51.4469C44.7055 51.4169 44.6918 51.3835 44.6847 51.3468C44.6776 51.3101 44.6762 51.2723 44.6804 51.2336C44.6859 51.1966 44.6961 51.161 44.711 51.1267C44.7275 51.091 44.7497 51.0599 44.7776 51.0336C44.8056 51.0073 44.8362 50.9886 44.8694 50.9776C44.9027 50.9665 44.9352 50.9619 44.967 50.9638C45.0016 50.966 45.0333 50.9752 45.0621 50.9914C45.091 51.0077 45.1156 51.0308 45.1359 51.0608C45.1551 51.0891 45.1682 51.1215 45.1753 51.1583C45.1836 51.1967 45.1856 51.2353 45.1814 51.2741C45.1771 51.3128 45.166 51.3508 45.1479 51.388C45.1315 51.4237 45.1093 51.4548 45.0813 51.4811ZM42.2479 54.8346L44.7888 52.9632L44.866 53.0771C44.9068 53.1371 44.8992 53.1934 44.8433 53.2461L44.1201 53.801C44.2919 53.7579 44.4554 53.7342 44.6104 53.73C44.7681 53.7262 44.9133 53.7413 45.046 53.7755C45.1802 53.8083 45.2992 53.8598 45.4028 53.93C45.508 53.9987 45.596 54.0852 45.6666 54.1893C45.7996 54.3853 45.8429 54.5861 45.7966 54.7917C45.7503 54.9973 45.6215 55.1995 45.4103 55.3984C45.3963 55.4115 45.3794 55.426 45.3596 55.4418C45.3425 55.4579 45.3127 55.4816 45.2703 55.5128C45.2291 55.5458 45.1697 55.5916 45.0923 55.65C45.0164 55.707 44.9125 55.7846 44.7806 55.8828C44.6502 55.9795 44.4857 56.101 44.2872 56.2474C44.0915 56.3941 43.8519 56.5719 43.5685 56.7808L43.3996 56.5319L45.0163 55.3354C45.0949 55.2787 45.1661 55.2204 45.2297 55.1604C45.3866 55.0128 45.4829 54.8657 45.5185 54.7194C45.5553 54.5748 45.524 54.4292 45.4245 54.2827C45.3575 54.1839 45.2673 54.1053 45.1539 54.0471C45.0422 53.9875 44.9128 53.9487 44.7658 53.9309C44.6215 53.9134 44.463 53.918 44.2902 53.9447C44.1189 53.9699 43.9395 54.0188 43.7519 54.0912L42.4168 55.0835L42.2479 54.8346Z" fill="black"/>
<rect width="54.0369" height="15.1418" rx="3.19948" transform="matrix(0.376807 -0.927506 0.862595 0.508575 55.2097 50.6509)" fill="#E4DCD0"/>
<path d="M67.4468 41.1668L68.4915 42.3235L68.4443 42.4391C68.4346 42.4628 68.4201 42.4788 68.4007 42.4871C68.3814 42.4953 68.3597 42.4924 68.3358 42.4784C68.3229 42.4708 68.3094 42.4592 68.2952 42.4435L67.3524 41.398L66.9892 42.2874L67.9431 43.3394C67.9761 43.3759 67.9952 43.4129 68.0005 43.4503C68.0066 43.4857 68.0032 43.5192 67.9903 43.5509L67.9406 43.6724L66.8959 42.5157L66.6744 43.0583C66.6534 43.1096 66.6208 43.1224 66.5766 43.0964C66.5692 43.0921 66.5628 43.0883 66.5573 43.0851C66.5507 43.0788 66.5432 43.072 66.5348 43.0646L66.4632 42.9968L66.7283 42.3476L65.8055 41.3285L65.4992 42.0786L65.4091 41.989C65.3576 41.9416 65.3485 41.8775 65.3816 41.7964L65.6406 41.162L64.6849 40.0979C64.6547 40.0655 64.6366 40.0316 64.6305 39.9962C64.6234 39.9577 64.6267 39.9217 64.6404 39.8881L64.6888 39.7695L65.7351 40.9307L66.0971 40.0443L65.0521 38.8801L65.1017 38.7585C65.1114 38.7348 65.1255 38.7198 65.144 38.7135C65.1615 38.7042 65.1813 38.706 65.2034 38.719C65.2163 38.7265 65.2299 38.7382 65.244 38.7538L66.1915 39.8131L66.4651 39.1431L66.5501 39.237C66.5755 39.2641 66.5911 39.2929 66.597 39.3233C66.6037 39.3517 66.5989 39.3857 66.5828 39.4252L66.3564 39.9796L67.2792 40.9987L67.5528 40.3286C67.5754 40.2733 67.6106 40.2597 67.6585 40.2878C67.6641 40.291 67.6705 40.2948 67.6779 40.2991C67.6834 40.3023 67.689 40.3081 67.6948 40.3164L67.764 40.3901L67.4468 41.1668ZM66.8215 42.1193L67.1848 41.2299L66.2631 40.2079L65.8999 41.0973L66.8215 42.1193ZM66.5491 38.7361L66.6303 38.5374C66.6504 38.488 66.6846 38.4714 66.7329 38.4874L69.0638 39.3623C69.1076 39.3782 69.1488 39.3974 69.1874 39.4201C69.2251 39.4398 69.2623 39.4604 69.2992 39.482C69.2688 39.4446 69.2384 39.4071 69.208 39.3697C69.1758 39.3312 69.1431 39.2912 69.1098 39.2496L67.3358 36.9522C67.3018 36.9126 67.2936 36.8711 67.3114 36.8276L67.355 36.7209C67.3727 36.6774 67.4031 36.6646 67.446 36.6824L69.812 37.5301C69.8584 37.5451 69.9014 37.5629 69.9408 37.5837C69.9811 37.6024 70.0214 37.6211 70.0617 37.6399C70.0279 37.6053 69.9944 37.5698 69.9614 37.5333C69.9284 37.4967 69.8947 37.4562 69.8604 37.4116L68.0864 35.1729C68.0702 35.1511 68.0598 35.1291 68.0552 35.1068C68.0496 35.0815 68.0512 35.0579 68.0601 35.0362L68.14 34.8405L70.3731 37.716L70.2908 37.9175C70.2787 37.9472 70.2517 37.9546 70.2097 37.9398L67.7923 37.084C67.7422 37.0669 67.6978 37.047 67.6591 37.0243C67.694 37.0619 67.7291 37.1045 67.7644 37.1522L69.5705 39.5052C69.6027 39.5437 69.6124 39.5787 69.5995 39.6104L69.5196 39.806L66.5491 38.7361ZM69.6544 32.7255C69.7299 32.7698 69.7973 32.8228 69.8565 32.8845C69.9158 32.9462 69.9645 33.0226 70.0027 33.1136C70.0409 33.2045 70.0682 33.3137 70.0847 33.441C70.0994 33.5672 70.0995 33.7179 70.085 33.8931C70.0687 34.0673 70.037 34.2679 69.9899 34.4951C69.9409 34.7212 69.8738 34.9807 69.7884 35.2736C69.8254 35.3002 69.8629 35.3259 69.9008 35.3505C69.9368 35.3741 69.9732 35.3967 70.0101 35.4183C70.2845 35.5793 70.5261 35.639 70.7349 35.5973C70.9445 35.5537 71.1042 35.3974 71.2139 35.1286C71.2567 35.0239 71.2849 34.9241 71.2986 34.8292C71.3112 34.7312 71.3142 34.6399 71.3077 34.5552C71.302 34.4686 71.2908 34.3898 71.2741 34.3187C71.2583 34.2457 71.2419 34.1798 71.2249 34.1208C71.2078 34.0618 71.1949 34.0125 71.1859 33.973C71.1759 33.9304 71.1758 33.8972 71.1854 33.8735C71.1951 33.8498 71.2128 33.8344 71.2385 33.8274L71.337 33.8044C71.3932 33.9574 71.4373 34.1009 71.4694 34.2348C71.5004 34.3657 71.5186 34.4916 71.5241 34.6123C71.5304 34.7312 71.523 34.8469 71.5021 34.9596C71.4831 35.0734 71.4501 35.1876 71.4033 35.3022C71.3363 35.4662 71.2517 35.5979 71.1495 35.6972C71.0463 35.7935 70.9309 35.858 70.8033 35.891C70.6739 35.9229 70.5336 35.9226 70.3824 35.8903C70.2294 35.8569 70.07 35.7916 69.9042 35.6943C69.7661 35.6133 69.6331 35.5169 69.5052 35.4051C69.3773 35.2934 69.2607 35.171 69.1551 35.0381C69.0504 34.9032 68.9592 34.7603 68.8816 34.6094C68.8048 34.4565 68.7475 34.3004 68.7098 34.1411C68.6721 33.9818 68.6568 33.8209 68.6638 33.6584C68.6708 33.496 68.7062 33.3366 68.7699 33.1805C68.8289 33.0362 68.8978 32.926 68.9769 32.8499C69.0549 32.7707 69.1349 32.7172 69.2171 32.6894C69.2981 32.6586 69.3775 32.6488 69.4551 32.66C69.5308 32.6702 69.5973 32.692 69.6544 32.7255ZM68.9573 33.3088C68.8927 33.4669 68.8655 33.6285 68.8757 33.7937C68.8866 33.957 68.9244 34.1188 68.989 34.2792C69.0526 34.4365 69.1398 34.5893 69.2505 34.7376C69.3601 34.8827 69.4831 35.0149 69.6194 35.134C69.6961 34.8679 69.755 34.6342 69.7961 34.4329C69.8354 34.2305 69.8624 34.0553 69.8772 33.9072C69.8902 33.758 69.8903 33.6319 69.8776 33.5289C69.8657 33.4239 69.8456 33.3362 69.8173 33.2657C69.7872 33.1941 69.7501 33.1368 69.706 33.0938C69.6627 33.0489 69.6144 33.0107 69.561 32.9794C69.5223 32.9567 69.4768 32.9422 69.4245 32.9361C69.3712 32.9269 69.3173 32.9332 69.2627 32.9551C69.2081 32.9769 69.1543 33.0164 69.1013 33.0735C69.0473 33.1276 68.9993 33.206 68.9573 33.3088ZM69.6216 31.2123L72.224 33.1835L72.1114 33.4593L69.509 31.488L69.6216 31.2123ZM68.7624 30.44C68.7956 30.4595 68.8241 30.4848 68.8479 30.5159C68.8699 30.5459 68.8871 30.5793 68.8995 30.616C68.9119 30.6527 68.9181 30.6906 68.9181 30.7298C68.9188 30.767 68.9128 30.8014 68.8999 30.833C68.8861 30.8666 68.8668 30.8945 68.8418 30.9166C68.8168 30.9386 68.7884 30.9551 68.7566 30.9658C68.7256 30.9746 68.6935 30.9778 68.6602 30.9754C68.6251 30.972 68.591 30.9605 68.5578 30.9411C68.5247 30.9216 68.4962 30.8963 68.4724 30.8652C68.4485 30.8341 68.43 30.8012 68.4168 30.7665C68.4025 30.7287 68.395 30.6912 68.3942 30.654C68.3934 30.6168 68.3999 30.5814 68.4136 30.5478C68.4266 30.5162 68.4455 30.4893 68.4705 30.4673C68.4963 30.4432 68.5251 30.4258 68.5569 30.415C68.5887 30.4043 68.6231 30.4012 68.66 30.4057C68.6951 30.4092 68.7293 30.4206 68.7624 30.44ZM70.9854 28.8958C71.0048 28.9267 71.0088 28.956 70.9975 28.9837C70.9894 29.0035 70.9683 29.0217 70.9341 29.0384C70.8988 29.052 70.8573 29.0754 70.8095 29.1086C70.7599 29.1407 70.709 29.1869 70.6571 29.247C70.6033 29.3061 70.5542 29.39 70.5098 29.4987C70.4686 29.5995 70.4451 29.7046 70.4393 29.8138C70.4343 29.9211 70.4448 30.0241 70.4707 30.1226C70.4957 30.2181 70.5351 30.3061 70.5889 30.3867C70.6417 30.4642 70.7068 30.5257 70.7842 30.571C70.8597 30.6153 70.9309 30.6338 70.9978 30.6265C71.0647 30.6192 71.13 30.5963 71.1937 30.5577C71.2564 30.5161 71.3172 30.4648 71.3764 30.4039C71.4363 30.3411 71.497 30.2763 71.5585 30.2095C71.62 30.1426 71.684 30.081 71.7505 30.0244C71.8159 29.9648 71.8851 29.9184 71.958 29.8852C72.0317 29.8501 72.1113 29.8342 72.1966 29.8378C72.2801 29.8402 72.3706 29.87 72.4682 29.9273C72.5861 29.9964 72.6898 30.0891 72.7793 30.2053C72.8696 30.3195 72.9391 30.4485 72.9878 30.5922C73.0345 30.7348 73.0567 30.8874 73.0542 31.0501C73.0525 31.2108 73.0185 31.3721 72.9523 31.5342C72.8741 31.7259 72.7783 31.8682 72.665 31.961C72.55 32.0527 72.4237 32.1159 72.2863 32.1504L72.2202 32.0271C72.2104 32.0066 72.2041 31.9883 72.2016 31.9721C72.1991 31.9559 72.2015 31.939 72.2087 31.9212C72.2168 31.9014 72.2416 31.8853 72.2832 31.873C72.3248 31.8606 72.3745 31.8396 72.4323 31.8098C72.4891 31.7769 72.5488 31.7286 72.6113 31.6649C72.6739 31.6012 72.7302 31.508 72.7802 31.3855C72.8278 31.2689 72.8535 31.1529 72.8573 31.0375C72.86 30.919 72.8438 30.8078 72.8086 30.7039C72.7742 30.598 72.7242 30.5025 72.6585 30.4174C72.5909 30.3312 72.5111 30.2611 72.419 30.2071C72.338 30.1596 72.2622 30.1384 72.1916 30.1435C72.121 30.1486 72.0538 30.1705 71.9901 30.2091C71.9246 30.2466 71.8619 30.2968 71.802 30.3596C71.7421 30.4225 71.6823 30.4878 71.6226 30.5557C71.5619 30.6205 71.4997 30.6833 71.4361 30.744C71.3707 30.8036 71.3024 30.8505 71.2313 30.8848C71.1603 30.9191 71.0839 30.9355 71.0023 30.9342C70.9207 30.9328 70.8319 30.9041 70.7362 30.8479C70.6293 30.7852 70.5372 30.7006 70.4598 30.5939C70.3805 30.4861 70.3213 30.3656 70.2821 30.2324C70.241 30.0981 70.2234 29.9567 70.2293 29.8082C70.2333 29.6587 70.2651 29.5108 70.3249 29.3645C70.3927 29.1985 70.4755 29.0683 70.5735 28.9738C70.6714 28.8794 70.7876 28.8128 70.9221 28.7741L70.9854 28.8958ZM71.9388 26.5612C71.9582 26.5921 71.9622 26.6214 71.9509 26.6491C71.9428 26.6688 71.9217 26.6871 71.8875 26.7037C71.8522 26.7174 71.8107 26.7408 71.7629 26.774C71.7133 26.8061 71.6624 26.8523 71.6105 26.9124C71.5567 26.9715 71.5076 27.0554 71.4632 27.1641C71.422 27.2649 71.3985 27.3699 71.3927 27.4792C71.3877 27.5865 71.3982 27.6894 71.4241 27.788C71.4491 27.8835 71.4885 27.9715 71.5423 28.0521C71.5951 28.1296 71.6602 28.191 71.7376 28.2364C71.8131 28.2807 71.8843 28.2992 71.9512 28.2919C72.0181 28.2846 72.0834 28.2617 72.1471 28.2231C72.2098 28.1814 72.2706 28.1302 72.3298 28.0693C72.3897 28.0065 72.4504 27.9416 72.5119 27.8748C72.5734 27.808 72.6374 27.7463 72.7039 27.6898C72.7693 27.6302 72.8385 27.5838 72.9114 27.5506C72.9851 27.5155 73.0647 27.4996 73.15 27.5031C73.2335 27.5056 73.324 27.5354 73.4216 27.5927C73.5395 27.6618 73.6432 27.7545 73.7327 27.8707C73.823 27.9849 73.8925 28.1139 73.9412 28.2575C73.9879 28.4001 74.0101 28.5528 74.0076 28.7154C74.0059 28.8761 73.9719 29.0375 73.9057 29.1996C73.8275 29.3913 73.7317 29.5336 73.6184 29.6264C73.5034 29.7181 73.3771 29.7813 73.2397 29.8158L73.1736 29.6925C73.1638 29.672 73.1575 29.6537 73.155 29.6375C73.1525 29.6213 73.1549 29.6043 73.1621 29.5866C73.1702 29.5668 73.195 29.5507 73.2366 29.5384C73.2782 29.526 73.3279 29.5049 73.3857 29.4752C73.4425 29.4423 73.5022 29.394 73.5647 29.3303C73.6273 29.2665 73.6836 29.1734 73.7336 29.0508C73.7812 28.9342 73.8069 28.8182 73.8107 28.7028C73.8134 28.5844 73.7972 28.4732 73.762 28.3693C73.7276 28.2634 73.6776 28.1679 73.6119 28.0828C73.5443 27.9966 73.4645 27.9265 73.3724 27.8725C73.2914 27.8249 73.2156 27.8037 73.145 27.8089C73.0744 27.814 73.0072 27.8359 72.9435 27.8745C72.878 27.912 72.8153 27.9621 72.7554 28.025C72.6955 28.0878 72.6357 28.1532 72.576 28.2211C72.5153 28.2859 72.4531 28.3487 72.3895 28.4094C72.3241 28.469 72.2558 28.5159 72.1847 28.5502C72.1137 28.5844 72.0373 28.6009 71.9557 28.5996C71.874 28.5982 71.7853 28.5695 71.6896 28.5133C71.5827 28.4506 71.4906 28.3659 71.4132 28.2593C71.3339 28.1515 71.2747 28.031 71.2355 27.8978C71.1944 27.7635 71.1768 27.6221 71.1827 27.4736C71.1867 27.3241 71.2185 27.1762 71.2783 27.0299C71.3461 26.8639 71.4289 26.7336 71.5269 26.6392C71.6248 26.5448 71.741 26.4782 71.8755 26.4395L71.9388 26.5612ZM71.7985 25.8817L71.8796 25.6831C71.8998 25.6337 71.934 25.617 71.9823 25.6331L74.3132 26.508C74.3569 26.5238 74.3982 26.5431 74.4368 26.5658C74.4745 26.5854 74.5117 26.606 74.5485 26.6276C74.5182 26.5902 74.4878 26.5528 74.4574 26.5154C74.4252 26.4769 74.3925 26.4369 74.3592 26.3953L72.5852 24.0979C72.5512 24.0583 72.543 24.0168 72.5608 23.9733L72.6043 23.8666C72.6221 23.8231 72.6524 23.8103 72.6954 23.8281L75.0614 24.6758C75.1078 24.6908 75.1507 24.7086 75.1902 24.7293C75.2305 24.7481 75.2708 24.7668 75.3111 24.7855C75.2773 24.751 75.2438 24.7154 75.2108 24.6789C75.1778 24.6424 75.1441 24.6018 75.1098 24.5572L73.3358 22.3186C73.3196 22.2968 73.3092 22.2748 73.3046 22.2525C73.299 22.2271 73.3006 22.2036 73.3095 22.1818L73.3894 21.9862L75.6225 24.8616L75.5401 25.0632C75.528 25.0929 75.501 25.1003 75.4591 25.0855L73.0416 24.2297C72.9916 24.2125 72.9472 24.1926 72.9085 24.1699C72.9434 24.2075 72.9785 24.2502 73.0138 24.2978L74.8199 26.6508C74.8521 26.6893 74.8618 26.7244 74.8488 26.756L74.7689 26.9517L71.7985 25.8817ZM74.9037 19.8711C74.9793 19.9154 75.0467 19.9684 75.1059 20.0301C75.1652 20.0919 75.2139 20.1682 75.2521 20.2592C75.2903 20.3502 75.3176 20.4593 75.3341 20.5866C75.3488 20.7128 75.3489 20.8635 75.3344 21.0388C75.3181 21.2129 75.2863 21.4136 75.2392 21.6408C75.1903 21.8668 75.1231 22.1263 75.0378 22.4192C75.0748 22.4459 75.1123 22.4715 75.1502 22.4962C75.1862 22.5198 75.2226 22.5424 75.2595 22.564C75.5339 22.725 75.7755 22.7846 75.9843 22.743C76.1939 22.6993 76.3536 22.5431 76.4633 22.2743C76.5061 22.1695 76.5343 22.0697 76.5479 21.9748C76.5606 21.8769 76.5636 21.7856 76.5571 21.7009C76.5514 21.6142 76.5402 21.5354 76.5235 21.4644C76.5077 21.3914 76.4912 21.3254 76.4742 21.2664C76.4572 21.2075 76.4442 21.1582 76.4353 21.1186C76.4253 21.076 76.4251 21.0429 76.4348 21.0192C76.4445 20.9954 76.4622 20.9801 76.4879 20.9731L76.5863 20.95C76.6426 21.103 76.6867 21.2465 76.7188 21.3805C76.7498 21.5114 76.768 21.6372 76.7735 21.758C76.7797 21.8768 76.7724 21.9926 76.7515 22.1053C76.7325 22.219 76.6995 22.3332 76.6527 22.4479C76.5857 22.6119 76.5011 22.7436 76.3989 22.8429C76.2957 22.9391 76.1803 23.0037 76.0527 23.0367C75.9232 23.0685 75.7829 23.0683 75.6318 23.036C75.4787 23.0025 75.3194 22.9372 75.1536 22.84C75.0155 22.759 74.8825 22.6626 74.7546 22.5508C74.6267 22.439 74.51 22.3167 74.4045 22.1838C74.2998 22.0488 74.2086 21.9059 74.131 21.755C74.0542 21.6022 73.9969 21.4461 73.9592 21.2868C73.9215 21.1275 73.9062 20.9666 73.9132 20.8041C73.9202 20.6416 73.9556 20.4823 74.0193 20.3262C74.0782 20.1819 74.1472 20.0717 74.2263 19.9955C74.3043 19.9164 74.3843 19.8629 74.4664 19.8351C74.5475 19.8043 74.6269 19.7945 74.7045 19.8057C74.7802 19.8158 74.8467 19.8376 74.9037 19.8711ZM74.2067 20.4544C74.1421 20.6125 74.1149 20.7742 74.125 20.9394C74.136 21.1026 74.1738 21.2644 74.2384 21.4248C74.302 21.5822 74.3892 21.735 74.4999 21.8832C74.6095 22.0284 74.7325 22.1605 74.8687 22.2797C74.9455 22.0135 75.0044 21.7798 75.0455 21.5786C75.0847 21.3762 75.1118 21.201 75.1266 21.0529C75.1396 20.9037 75.1397 20.7776 75.127 20.6746C75.1151 20.5696 75.095 20.4819 75.0667 20.4114C75.0365 20.3398 74.9994 20.2825 74.9554 20.2395C74.9121 20.1945 74.8637 20.1564 74.8103 20.125C74.7717 20.1023 74.7262 20.0879 74.6739 20.0817C74.6206 20.0725 74.5667 20.0788 74.5121 20.1007C74.4575 20.1226 74.4037 20.1621 74.3507 20.2192C74.2966 20.2732 74.2486 20.3517 74.2067 20.4544ZM74.871 18.358L77.4734 20.3292L77.3608 20.6049L74.7584 18.6337L74.871 18.358ZM74.0118 17.5857C74.045 17.6052 74.0734 17.6304 74.0973 17.6616C74.1192 17.6916 74.1364 17.725 74.1489 17.7616C74.1613 17.7983 74.1675 17.8363 74.1674 17.8754C74.1682 17.9127 74.1622 17.9471 74.1492 17.9787C74.1355 18.0123 74.1162 18.0401 74.0912 18.0622C74.0662 18.0843 74.0378 18.1007 74.006 18.1115C73.975 18.1203 73.9429 18.1235 73.9096 18.1211C73.8745 18.1176 73.8404 18.1062 73.8072 18.0867C73.774 18.0673 73.7456 18.042 73.7217 18.0109C73.6979 17.9798 73.6794 17.9468 73.6662 17.9121C73.6519 17.8744 73.6444 17.8369 73.6436 17.7997C73.6428 17.7625 73.6493 17.7271 73.663 17.6935C73.6759 17.6618 73.6949 17.635 73.7199 17.6129C73.7457 17.5889 73.7745 17.5714 73.8063 17.5607C73.8381 17.5499 73.8724 17.5468 73.9094 17.5514C73.9445 17.5548 73.9787 17.5663 74.0118 17.5857ZM77.8996 19.2854L75.2878 17.3123L75.3398 17.1848C75.3673 17.1176 75.4142 17.1035 75.4805 17.1424L76.241 17.6951C76.1286 17.5287 76.0351 17.3636 75.9604 17.1997C75.8848 17.0329 75.8295 16.8718 75.7947 16.7167C75.7581 16.5604 75.7429 16.4131 75.7492 16.2747C75.7536 16.1352 75.7797 16.0072 75.8273 15.8906C75.9169 15.6712 76.0515 15.5456 76.2311 15.5138C76.4108 15.482 76.6259 15.5395 76.8763 15.6865C76.8929 15.6962 76.9119 15.7085 76.9332 15.7235C76.9534 15.7353 76.9854 15.7578 77.029 15.7907C77.0734 15.8217 77.136 15.8669 77.2166 15.9265C77.2955 15.985 77.4031 16.0653 77.5395 16.1673C77.6741 16.2683 77.8434 16.3958 78.0476 16.5499C78.2508 16.7009 78.4981 16.8864 78.7895 17.1064L78.6757 17.3851L77.0094 16.132C76.9296 16.0705 76.8519 16.0175 76.7764 15.9732C76.5903 15.8641 76.4328 15.8195 76.3037 15.8393C76.1754 15.8571 76.0778 15.9481 76.0108 16.1121C75.9656 16.2228 75.9467 16.3501 75.9541 16.4941C75.9596 16.637 75.9894 16.7905 76.0435 16.9545C76.0965 17.1154 76.1731 17.2828 76.2733 17.4568C76.3716 17.6296 76.4919 17.8018 76.6341 17.9735L78.0135 19.0067L77.8996 19.2854Z" fill="black"/>
</svg>
